<svg width="196" height="130" viewBox="0 0 196 130" fill="none" xmlns="http://www.w3.org/2000/svg">
<path d="M187.732 35.1069C183.789 20.3899 172.074 8.14395 157.808 4.22295C150.583 2.33837 142.98 2.46274 135.82 4.58263C128.66 6.70253 122.215 10.7374 117.181 16.2519C112.255 21.7409 108.707 28.6519 102.824 33.0139C95.6619 38.3219 86.2589 38.9519 77.4919 38.3979C68.7249 37.8439 59.8659 36.2899 51.2219 37.9619C37.3709 40.6439 25.4649 52.1959 21.9669 66.3309C18.4689 80.466 23.6139 96.4199 34.5669 105.508L46.6729 115.525C57.7729 123.586 99.8289 126.951 126.016 124.957C144.552 123.545 157.216 116.431 168.376 105.327C177.013 96.7409 182.129 85.0169 185.548 73.1519C189.125 60.7979 191.048 47.4899 187.732 35.1069Z" fill="#D2EEF6"/>
<path d="M195.135 128.067C195.135 128.111 151.445 128.149 97.567 128.149C43.689 128.149 0 128.121 0 128.067C0 128.013 43.68 127.984 97.58 127.984C151.48 127.984 195.135 128.022 195.135 128.067Z" fill="#263238"/>
<path d="M135.465 17.402L132.442 19.99L136.48 24.712L139.506 22.124L135.465 17.402Z" fill="#263238"/>
<path d="M138.08 17.035L131.854 22.384L127.488 17.296C129.048 14.992 131.193 13.1456 133.704 11.947L138.08 17.035Z" fill="#455A64"/>
<path d="M132.903 21.487C132.868 21.519 131.816 20.361 130.55 18.908C129.763 18.0504 129.02 17.1536 128.324 16.221C128.362 16.189 129.412 17.347 130.677 18.8C131.942 20.253 132.942 21.459 132.903 21.487Z" fill="#263238"/>
<path d="M134.08 20.47C133.828 20.2253 133.594 19.963 133.38 19.685C132.96 19.192 132.391 18.508 131.764 17.745L130.174 15.786L129.697 15.191C129.583 15.045 129.522 14.978 129.522 14.968C130.386 15.792 131.18 16.6853 131.898 17.639C132.534 18.402 133.081 19.099 133.488 19.61C133.71 19.8783 133.908 20.1658 134.079 20.469L134.08 20.47Z" fill="#263238"/>
<path d="M135.67 19.1119C135.415 18.8679 135.178 18.6055 134.961 18.3269C134.538 17.8269 133.966 17.1269 133.336 16.3589L131.746 14.3679L131.269 13.7609C131.207 13.6887 131.152 13.611 131.104 13.5289C131.377 13.7547 131.622 14.0118 131.835 14.2949C132.265 14.7879 132.843 15.4809 133.47 16.2539C134.097 17.0269 134.659 17.7359 135.06 18.2539C135.287 18.5226 135.491 18.81 135.67 19.1129V19.1119Z" fill="#263238"/>
<path d="M137.104 17.84C137.069 17.869 136.023 16.702 134.767 15.232C133.511 13.762 132.525 12.545 132.56 12.513C132.595 12.481 133.638 13.651 134.894 15.124C136.15 16.597 137.142 17.811 137.104 17.84Z" fill="#263238"/>
<path d="M188.748 20.617L185.998 17.739L181.505 22.032L184.256 24.91L188.748 20.617Z" fill="#263238"/>
<path d="M188.881 23.4519L183.214 17.5209L188.057 12.8939C190.439 14.3321 192.393 16.3795 193.72 18.8249L188.881 23.4519Z" fill="#455A64"/>
<path d="M184.161 18.5139C184.129 18.479 185.226 17.366 186.613 16.027C188 14.688 189.157 13.627 189.179 13.661C189.201 13.695 188.114 14.806 186.727 16.148C185.34 17.49 184.193 18.5459 184.161 18.5139Z" fill="#263238"/>
<path d="M185.242 19.643C185.468 19.3761 185.715 19.1273 185.98 18.899C186.447 18.454 187.103 17.846 187.831 17.179L189.704 15.484L190.273 14.975C190.41 14.854 190.473 14.794 190.486 14.791C189.708 15.6962 188.857 16.536 187.942 17.302C187.214 17.967 186.542 18.574 186.056 18.984C185.802 19.2245 185.53 19.4445 185.242 19.642V19.643Z" fill="#263238"/>
<path d="M186.68 21.147C186.909 20.8778 187.159 20.627 187.427 20.397C187.901 19.949 188.566 19.338 189.307 18.67L191.215 16.97L191.797 16.461C191.868 16.3978 191.942 16.3384 192.019 16.283C191.809 16.5684 191.565 16.8279 191.294 17.056C190.823 17.511 190.159 18.124 189.421 18.792C188.683 19.46 188.003 20.064 187.513 20.484C187.253 20.7254 186.974 20.9463 186.68 21.145V21.147Z" fill="#263238"/>
<path d="M188.026 22.5179C187.994 22.4829 189.107 21.3799 190.509 20.0469C191.911 18.7139 193.075 17.6649 193.109 17.6999C193.143 17.7349 192.028 18.8379 190.626 20.1679C189.224 21.4979 188.057 22.5459 188.026 22.5179Z" fill="#263238"/>
<path d="M163.361 6.87598H158.648V14.231H163.361V6.87598Z" fill="#263238"/>
<path d="M165.88 9.07596H156.18V1.15196C159.358 0.286423 162.71 0.286423 165.889 1.15196L165.88 9.07596Z" fill="#0097C2"/>
<path d="M166.004 1.17998C165.891 1.25088 165.77 1.3105 165.645 1.35798C165.313 1.50419 164.972 1.62943 164.624 1.73298C164.103 1.89338 163.572 2.01866 163.034 2.10798C162.381 2.21157 161.721 2.26672 161.059 2.27298C160.398 2.27403 159.738 2.22523 159.084 2.12698C158.547 2.04356 158.015 1.92362 157.494 1.76798C157.146 1.66597 156.804 1.54376 156.47 1.40198C156.344 1.35795 156.223 1.29921 156.111 1.22698C156.111 1.19798 156.645 1.41798 157.526 1.65298C158.043 1.78954 158.568 1.89573 159.097 1.97098C159.744 2.05869 160.397 2.10346 161.05 2.10498C161.703 2.09739 162.356 2.04628 163.002 1.95198C163.529 1.87572 164.052 1.76955 164.567 1.63398C165.47 1.37698 165.991 1.15198 166.004 1.17998Z" fill="#263238"/>
<path d="M159.386 9.05195C159.341 9.05195 159.303 7.52895 159.303 5.65195C159.303 3.77495 159.341 2.25195 159.386 2.25195C159.431 2.25195 159.469 3.77195 159.469 5.65195C159.469 7.53195 159.434 9.05195 159.386 9.05195Z" fill="#263238"/>
<path d="M161.234 9.098C161.189 9.098 161.151 7.568 161.151 5.683C161.151 3.798 161.189 2.271 161.234 2.271C161.279 2.271 161.316 3.797 161.316 5.683C161.316 7.569 161.281 9.098 161.234 9.098Z" fill="#263238"/>
<path d="M163.082 9.06901C163.037 9.06901 162.999 7.53901 162.999 5.65401C162.999 3.76901 163.037 2.23901 163.082 2.23901C163.127 2.23901 163.164 3.76901 163.164 5.65401C163.164 7.53901 163.129 9.06901 163.082 9.06901Z" fill="#263238"/>
<path d="M164.608 9.06894C164.561 9.06894 164.526 7.41494 164.526 5.37694C164.526 3.33894 164.561 1.68494 164.608 1.68494C164.655 1.68494 164.691 3.33894 164.691 5.37694C164.726 6.60821 164.698 7.84047 164.608 9.06894Z" fill="#263238"/>
<path d="M157.642 9.02194C157.598 9.02194 157.56 7.36794 157.56 5.32994C157.56 3.29194 157.598 1.63794 157.642 1.63794C157.686 1.63794 157.725 3.29194 157.725 5.32994C157.725 7.36794 157.688 9.02194 157.642 9.02194Z" fill="#263238"/>
<path d="M184.682 70.491C189.478 65.6955 192.743 59.5856 194.067 52.9339C195.39 46.2823 194.711 39.3877 192.115 33.122C189.52 26.8563 185.125 21.5009 179.486 17.733C173.847 13.9652 167.217 11.9541 160.436 11.9541C153.654 11.9541 147.024 13.9652 141.385 17.733C135.746 21.5009 131.351 26.8563 128.756 33.122C126.16 39.3877 125.481 46.2823 126.804 52.9339C128.128 59.5856 131.393 65.6955 136.189 70.491C142.62 76.9212 151.341 80.5337 160.436 80.5337C169.53 80.5337 178.251 76.9212 184.682 70.491Z" fill="#0097C2"/>
<path d="M160.436 74.7709C166.132 74.7709 171.7 73.0818 176.436 69.9172C181.173 66.7526 184.864 62.2547 187.044 56.9922C189.224 51.7297 189.794 45.939 188.683 40.3523C187.571 34.7657 184.828 29.634 180.801 25.6062C176.773 21.5785 171.641 18.8355 166.055 17.7243C160.468 16.613 154.677 17.1834 149.415 19.3632C144.152 21.543 139.654 25.2344 136.49 29.9705C133.325 34.7066 131.636 40.2748 131.636 45.9709C131.636 49.753 132.381 53.498 133.828 56.9922C135.276 60.4864 137.397 63.6613 140.071 66.3356C142.746 69.0099 145.921 71.1313 149.415 72.5786C152.909 74.026 156.654 74.7709 160.436 74.7709Z" fill="#FAFAFA"/>
<path d="M189.233 45.9729C189.233 45.9729 189.233 45.8169 189.211 45.5089C189.189 45.2009 189.211 44.7389 189.151 44.1379C189.037 42.3831 188.762 40.6425 188.33 38.9379C187.642 36.244 186.57 33.6629 185.147 31.2739C183.248 28.1126 180.766 25.3406 177.833 23.1049C174.274 20.3965 170.13 18.5582 165.733 17.7369C162.007 17.0511 158.183 17.0952 154.473 17.8669C153.17 18.1505 151.887 18.518 150.632 18.9669C145.289 20.9132 140.642 24.3976 137.276 28.9809C136.398 30.1743 135.615 31.4352 134.936 32.7519C134.583 33.4099 134.28 34.0939 133.982 34.7809C133.68 35.4741 133.416 36.1832 133.19 36.9049C132.702 38.3559 132.336 39.845 132.096 41.3569C131.854 42.8853 131.728 44.4296 131.717 45.9769C131.729 47.5254 131.854 49.0709 132.093 50.6009C132.336 52.1122 132.702 53.6011 133.187 55.0529C133.416 55.7749 133.702 56.4739 133.978 57.1739C134.261 57.8672 134.579 58.5455 134.932 59.2059C135.612 60.5232 136.396 61.7841 137.276 62.9769C140.641 67.5625 145.288 71.0488 150.632 72.9959C151.887 73.4449 153.17 73.8123 154.473 74.0959C155.743 74.3612 157.03 74.5406 158.324 74.6329C165.315 75.1555 172.255 73.0989 177.833 68.8519C180.767 66.6172 183.249 63.845 185.147 60.6829C185.922 59.3888 186.591 58.034 187.147 56.6319C188.276 53.8205 188.952 50.8474 189.147 47.8239C189.201 47.2239 189.191 46.7619 189.207 46.4529C189.223 46.1439 189.229 45.9859 189.229 45.9859V46.4519C189.229 46.7599 189.229 47.2219 189.185 47.8229C189.011 50.855 188.348 53.839 187.223 56.6599C186.668 58.0687 185.999 59.4298 185.223 60.7299C183.328 63.9072 180.846 66.6948 177.909 68.9439C172.309 73.2136 165.34 75.2859 158.317 74.7699C157.016 74.6778 155.724 74.4984 154.447 74.2329C153.136 73.951 151.846 73.5835 150.583 73.1329C145.212 71.1788 140.539 67.678 137.155 63.0719C136.272 61.8724 135.485 60.6048 134.802 59.2809C134.446 58.6199 134.141 57.9259 133.829 57.2359C133.522 56.5411 133.256 55.8285 133.034 55.1019C132.546 53.6441 132.178 52.1488 131.934 50.6309C131.429 47.5515 131.429 44.4103 131.934 41.3309C132.179 39.8195 132.547 38.3306 133.034 36.8789C133.266 36.1509 133.552 35.4479 133.834 34.7449C134.118 34.0463 134.442 33.3645 134.804 32.7029C135.489 31.3799 136.277 30.1127 137.16 28.9129C140.544 24.3054 145.217 20.8042 150.59 18.8519C151.852 18.4018 153.142 18.0343 154.451 17.7519C155.729 17.4867 157.023 17.3073 158.324 17.2149C165.346 16.6996 172.314 18.772 177.913 23.0409C183.107 27.008 186.805 32.6158 188.407 38.9519C188.831 40.6611 189.096 42.4059 189.198 44.1639C189.246 44.7639 189.23 45.2259 189.243 45.5349C189.254 45.6809 189.25 45.8276 189.233 45.9729Z" fill="#263238"/>
<path d="M185.007 44.9299C184.453 44.9998 183.891 44.9728 183.347 44.8499C183.877 44.6765 184.433 44.596 184.991 44.6119C185.545 44.5251 186.11 44.5509 186.654 44.6879C186.127 44.8792 185.567 44.9615 185.007 44.9299Z" fill="#263238"/>
<path d="M184.394 51.56C183.839 51.4741 183.302 51.2981 182.804 51.039C183.362 51.0136 183.92 51.0846 184.454 51.249C185.012 51.319 185.552 51.4959 186.044 51.77C185.485 51.8111 184.924 51.7397 184.394 51.56Z" fill="#263238"/>
<path d="M182.017 57.7769C181.506 57.5515 181.038 57.2384 180.634 56.8519C181.177 56.9772 181.695 57.1922 182.167 57.4879C182.688 57.6961 183.16 58.0124 183.55 58.4159C183 58.3116 182.478 58.094 182.017 57.7769Z" fill="#263238"/>
<path d="M178.058 63.1319C177.403 62.4959 176.917 61.9319 176.974 61.8599C177.031 61.7879 177.61 62.2599 178.274 62.8939C178.938 63.5279 179.422 64.0859 179.358 64.1659C179.294 64.2459 178.71 63.7719 178.058 63.1319Z" fill="#263238"/>
<path d="M172.812 67.2339C172.492 66.7759 172.253 66.2661 172.106 65.7269C172.507 66.1154 172.839 66.5705 173.085 67.0719C173.42 67.5217 173.661 68.0342 173.794 68.5789C173.715 68.6299 173.273 68.0189 172.812 67.2339Z" fill="#263238"/>
<path d="M166.659 69.775C166.473 69.2481 166.381 68.6928 166.385 68.134C166.667 68.6159 166.864 69.143 166.967 69.692C167.171 70.2143 167.264 70.7729 167.242 71.333C166.943 70.8591 166.745 70.3288 166.659 69.775Z" fill="#263238"/>
<path d="M160.042 70.564C159.995 70.0058 160.054 69.4437 160.214 68.907C160.357 69.4469 160.406 70.0074 160.36 70.564C160.414 71.1222 160.355 71.6855 160.189 72.221C160.027 71.6845 159.977 71.1206 160.042 70.564Z" fill="#263238"/>
<path d="M153.478 69.5679C153.59 69.0207 153.798 68.4977 154.092 68.0229C154.084 68.5822 153.977 69.1356 153.774 69.6569C153.677 70.2083 153.468 70.734 153.16 71.2019C153.146 70.6407 153.255 70.0831 153.478 69.5679Z" fill="#263238"/>
<path d="M147.394 66.831C147.65 66.3347 147.99 65.8862 148.399 65.505C148.243 66.0422 147.995 66.5482 147.665 67C147.191 67.782 146.739 68.374 146.66 68.326C146.802 67.7834 147.051 67.2749 147.394 66.831Z" fill="#263238"/>
<path d="M142.278 62.5689C142.658 62.1596 143.106 61.8187 143.601 61.5609C143.306 62.0346 142.932 62.454 142.495 62.8009C141.827 63.4269 141.239 63.8789 141.172 63.8119C141.105 63.7449 141.604 63.1859 142.278 62.5689Z" fill="#263238"/>
<path d="M138.487 57.093C138.964 56.8019 139.487 56.5933 140.033 56.476C139.621 56.8533 139.147 57.1577 138.633 57.376C138.166 57.6857 137.64 57.8958 137.088 57.993C137.042 57.907 137.673 57.507 138.487 57.093Z" fill="#263238"/>
<path d="M136.306 50.803C136.844 50.6478 137.405 50.5876 137.963 50.625C137.466 50.8795 136.928 51.0453 136.373 51.115C135.838 51.2853 135.275 51.3459 134.716 51.293C135.208 51.0257 135.749 50.8591 136.306 50.803Z" fill="#263238"/>
<path d="M135.902 44.1699C136.461 44.1642 137.017 44.2545 137.546 44.437C136.998 44.5484 136.436 44.5647 135.883 44.485C135.324 44.5073 134.765 44.4165 134.242 44.2179C134.785 44.0808 135.352 44.0644 135.902 44.1699Z" fill="#263238"/>
<path d="M137.285 37.641C137.822 37.7932 138.332 38.0295 138.796 38.341C138.239 38.2963 137.693 38.1612 137.18 37.941C136.635 37.8105 136.122 37.5725 135.67 37.241C136.23 37.2633 136.779 37.3994 137.285 37.641Z" fill="#263238"/>
<path d="M140.373 31.743C140.853 32.0315 141.283 32.3967 141.645 32.824C141.12 32.6337 140.631 32.3562 140.198 32.003C139.445 31.485 138.879 31.003 138.926 30.922C139.459 31.0956 139.951 31.3748 140.373 31.743Z" fill="#263238"/>
<path d="M144.924 26.8839C145.312 27.2867 145.627 27.7536 145.855 28.2639C145.795 28.3179 145.264 27.7869 144.679 27.0839C144.094 26.3809 143.679 25.7679 143.747 25.7069C143.815 25.6459 144.348 26.1739 144.924 26.8839Z" fill="#263238"/>
<path d="M150.616 23.418C150.884 23.9125 151.062 24.4509 151.141 25.008C150.783 24.5786 150.507 24.0871 150.327 23.558C150.045 23.0693 149.865 22.5283 149.799 21.968C149.885 21.917 150.242 22.581 150.616 23.418Z" fill="#263238"/>
<path d="M157.02 21.615C157.144 22.1604 157.171 22.7233 157.1 23.278C156.872 22.7677 156.736 22.2208 156.7 21.663C156.563 21.1195 156.535 20.5543 156.618 20C156.86 20.5056 156.997 21.055 157.02 21.615Z" fill="#263238"/>
<path d="M163.68 21.592C163.653 22.1504 163.53 22.7001 163.317 23.217C163.237 22.664 163.253 22.1013 163.365 21.554C163.377 20.9937 163.5 20.4414 163.727 19.929C163.824 20.4808 163.808 21.0465 163.68 21.592Z" fill="#263238"/>
<path d="M170.1 23.352C169.927 23.8839 169.659 24.3804 169.311 24.818C169.385 24.2632 169.554 23.7254 169.811 23.228C169.97 22.6911 170.239 22.193 170.6 21.765C170.543 22.3224 170.373 22.8624 170.1 23.352Z" fill="#263238"/>
<path d="M175.811 26.776C175.5 27.2403 175.11 27.6465 174.659 27.976C174.875 27.4606 175.18 26.9869 175.559 26.576C176.121 25.854 176.633 25.304 176.71 25.376C176.787 25.448 176.373 26.063 175.811 26.776Z" fill="#263238"/>
<path d="M180.399 31.603C179.975 31.9671 179.491 32.2544 178.968 32.452C179.315 32.0137 179.736 31.6391 180.211 31.345C180.625 30.9671 181.112 30.6782 181.642 30.496C181.7 30.572 181.142 31.069 180.399 31.603Z" fill="#263238"/>
<path d="M183.525 37.492C183.018 37.7276 182.473 37.8737 181.916 37.924C182.371 37.597 182.878 37.3499 183.416 37.193C183.917 36.9421 184.463 36.7951 185.022 36.761C184.577 37.1031 184.068 37.3517 183.525 37.492Z" fill="#263238"/>
<path d="M184.96 43.986C184.409 44.0699 183.848 44.0699 183.296 43.986C183.822 43.7997 184.373 43.6925 184.931 43.668C185.48 43.5484 186.048 43.5538 186.594 43.684C186.075 43.8932 185.519 43.9959 184.96 43.986Z" fill="#263238"/>
<path d="M149.251 14.819L149.151 14.864L148.858 14.982C148.604 15.09 148.222 15.221 147.736 15.433C146.365 16.0063 145.034 16.6705 143.751 17.421C142.937 17.892 142.075 18.454 141.169 19.087C140.207 19.764 139.286 20.4987 138.412 21.287C134.349 24.868 131.246 29.4075 129.384 34.493C128.948 35.657 128.621 36.793 128.338 37.861C128.079 38.8529 127.873 39.858 127.721 40.872C127.49 42.3392 127.357 43.8201 127.321 45.305C127.296 45.833 127.321 46.24 127.321 46.517V46.835C127.324 46.8709 127.324 46.907 127.321 46.943C127.317 46.9097 127.317 46.8762 127.321 46.843V46.525C127.321 46.248 127.286 45.841 127.302 45.313C127.313 43.8224 127.431 42.3346 127.655 40.861C127.789 39.926 127.995 38.912 128.255 37.834C128.542 36.6878 128.888 35.5573 129.292 34.447C131.144 29.3272 134.266 24.7613 138.364 21.177C139.296 20.347 140.243 19.632 141.14 18.977C141.974 18.3751 142.842 17.8219 143.74 17.32C145.032 16.5775 146.374 15.9272 147.757 15.374C148.243 15.174 148.634 15.056 148.895 14.951L149.195 14.851C149.213 14.84 149.232 14.8303 149.252 14.822L149.251 14.819Z" fill="white"/>
<path d="M158.824 12.962C158.497 13.0298 158.165 13.0733 157.831 13.092C157.215 13.156 156.369 13.248 155.431 13.369C154.493 13.49 153.653 13.617 153.043 13.712C152.716 13.7792 152.384 13.8217 152.051 13.839C152.367 13.7287 152.693 13.6477 153.024 13.597C153.631 13.473 154.474 13.327 155.409 13.206C156.344 13.085 157.199 13.006 157.819 12.974C158.153 12.9385 158.489 12.9345 158.824 12.962Z" fill="white"/>
<g opacity="0.4">
<path opacity="0.4" d="M137.419 63.285C137.419 63.285 152.342 86.836 175.493 74.774C199.661 62.181 186.305 33.317 186.305 33.317C186.305 33.317 197.676 56.317 174.119 71.317C168.252 75.054 161.864 75.057 156.992 74.567C144.542 73.321 137.419 63.285 137.419 63.285Z" fill="black"/>
</g>
<path d="M168.462 30.668C168.605 34.8915 168.477 39.1198 168.08 43.327C168.003 44.8561 167.697 46.365 167.174 47.804C166.641 49.2544 165.565 50.4411 164.174 51.114C163.475 51.4292 162.696 51.5196 161.944 51.3727C161.191 51.2259 160.503 50.8489 159.974 50.294L168.462 30.668Z" fill="#E0E0E0"/>
<path d="M159.809 43.703L170.274 26.08L163.959 45.98L160.731 46.944L159.809 43.703Z" fill="#0097C2"/>
<g opacity="0.4">
<path opacity="0.4" d="M170.274 26.079L162.512 44.087L163.958 45.976L170.274 26.079Z" fill="black"/>
</g>
<path d="M160.731 50.308C161.397 50.308 162.048 50.1105 162.602 49.7404C163.156 49.3703 163.588 48.8443 163.843 48.2289C164.098 47.6135 164.164 46.9363 164.034 46.283C163.904 45.6296 163.584 45.0295 163.113 44.5585C162.642 44.0875 162.041 43.7667 161.388 43.6367C160.735 43.5068 160.058 43.5735 159.442 43.8284C158.827 44.0833 158.301 44.515 157.931 45.0689C157.561 45.6227 157.363 46.2739 157.363 46.94C157.363 47.3823 157.45 47.8203 157.619 48.2289C157.789 48.6375 158.037 49.0088 158.35 49.3216C158.662 49.6343 159.034 49.8824 159.442 50.0516C159.851 50.2209 160.289 50.308 160.731 50.308Z" fill="#FAFAFA"/>
<path d="M164.099 46.94C164.068 46.6664 164.023 46.3946 163.962 46.126C163.767 45.4005 163.335 44.7611 162.734 44.31C162.293 43.978 161.776 43.7619 161.23 43.6813C160.684 43.6008 160.127 43.6584 159.609 43.849C159.311 43.9541 159.031 44.1053 158.779 44.297C158.51 44.4913 158.273 44.7277 158.079 44.997C157.666 45.5606 157.443 46.2412 157.443 46.94C157.443 47.6388 157.666 48.3195 158.079 48.883C158.451 49.3891 158.959 49.7793 159.543 50.0086C160.128 50.2379 160.766 50.2967 161.382 50.1783C161.999 50.0599 162.569 49.7692 163.028 49.3397C163.486 48.9103 163.813 48.3598 163.971 47.752C164.033 47.4837 164.079 47.2119 164.108 46.938C164.128 47.2168 164.103 47.497 164.035 47.768C163.861 48.5263 163.43 49.2007 162.814 49.676C162.392 50.0038 161.898 50.2272 161.373 50.328C160.769 50.4433 160.146 50.395 159.567 50.188C159.253 50.0795 158.958 49.9219 158.693 49.721C158.412 49.5176 158.165 49.2709 157.961 48.99C157.523 48.4005 157.287 47.6858 157.287 46.9515C157.287 46.2173 157.523 45.5025 157.961 44.913C158.165 44.6325 158.412 44.3859 158.693 44.182C158.959 43.9838 159.254 43.8274 159.567 43.718C160.017 43.5543 160.496 43.4875 160.974 43.522C161.452 43.5565 161.916 43.6914 162.338 43.9179C162.76 44.1445 163.129 44.4576 163.422 44.8368C163.714 45.2159 163.923 45.6525 164.035 46.118C164.099 46.3854 164.12 46.661 164.099 46.935V46.94Z" fill="#263238"/>
<path d="M163.198 47.444C163.296 46.9583 163.248 46.4545 163.06 45.9961C162.871 45.5378 162.552 45.1456 162.14 44.869C161.729 44.5924 161.245 44.4439 160.75 44.4423C160.255 44.4406 159.77 44.5859 159.357 44.8597C158.944 45.1335 158.621 45.5236 158.43 45.9806C158.239 46.4376 158.187 46.9411 158.282 47.4275C158.377 47.9138 158.613 48.3611 158.962 48.7129C159.311 49.0647 159.757 49.3052 160.242 49.404C160.565 49.4698 160.898 49.4712 161.221 49.4083C161.544 49.3454 161.852 49.2193 162.127 49.0372C162.401 48.8551 162.637 48.6207 162.821 48.3473C163.005 48.0739 163.133 47.7669 163.198 47.444Z" fill="#455A64"/>
<path d="M134.181 127.768H150.749L143.025 61.198L134.181 127.768Z" fill="#E0E0E0"/>
<path d="M52.66 61.198L41.873 128.552L133.917 129.752L143.025 61.198H52.66Z" fill="#FAFAFA"/>
<path d="M138.925 92.052H47.718L49.702 79.652H140.573L138.925 92.052Z" fill="#EBEBEB"/>
<path d="M138.932 92.063H47.708L49.695 79.663H140.582L138.932 92.063ZM47.732 92.047H138.924L140.568 79.647H49.712L47.732 92.047Z" fill="#263238"/>
<path d="M52.6599 61.198L49.7019 79.652H140.573L143.024 61.199L52.6599 61.198Z" fill="#0097C2"/>
<path d="M52.6731 61.1979L143.037 61.1219H143.123V61.208C140.462 81.277 137.441 104.036 134.248 128.073V128.146H133.142L41.9511 128.121H41.8621V128.041L52.6731 61.1979C52.5841 61.7509 48.4731 87.576 42.0301 128.073L41.9631 127.993H134.153L134.074 128.063C137.274 104.026 140.297 81.27 142.974 61.202L143.047 61.285L52.6731 61.1979Z" fill="#263238"/>
<path d="M140.573 79.652C140.573 79.697 120.221 79.735 95.1409 79.735C70.0609 79.735 49.7019 79.697 49.7019 79.652C49.7019 79.607 70.0539 79.569 95.1399 79.569C120.226 79.569 140.573 79.604 140.573 79.652Z" fill="#263238"/>
<path d="M138.926 92.052C138.926 92.1 118.466 92.135 93.236 92.135C68.006 92.135 47.542 92.101 47.542 92.052C47.542 92.003 67.995 91.969 93.235 91.969C118.475 91.969 138.926 92.009 138.926 92.052Z" fill="#263238"/>
<path d="M137.068 103.467C137.068 103.514 116.612 103.549 91.382 103.549C66.152 103.549 45.676 103.514 45.676 103.467C45.676 103.42 66.13 103.384 91.369 103.384C116.608 103.384 137.068 103.422 137.068 103.467Z" fill="#263238"/>
<path d="M135.215 114.88C135.215 114.924 114.755 114.962 89.525 114.962C64.295 114.962 43.832 114.924 43.832 114.88C43.832 114.836 64.285 114.797 89.525 114.797C114.765 114.797 135.215 114.835 135.215 114.88Z" fill="#263238"/>
<path d="M54.7941 128.165C54.7491 128.165 56.4191 117.29 58.5271 103.896C60.6351 90.502 62.3751 79.642 62.4191 79.652C62.4631 79.662 60.7941 90.521 58.6891 103.921C56.5841 117.321 54.8421 128.172 54.7941 128.165Z" fill="#263238"/>
<path d="M68.8589 128.165C68.8109 128.165 70.4839 117.29 72.5889 103.896C74.6939 90.502 76.4369 79.642 76.4889 79.652C76.5409 79.662 74.8639 90.521 72.7559 103.921C70.6479 117.321 68.8909 128.172 68.8589 128.165Z" fill="#263238"/>
<path d="M81.9281 127.679C81.8841 127.679 83.5371 116.915 85.6201 103.654C87.7031 90.3929 89.4361 79.6419 89.4771 79.6539C89.5181 79.6659 87.8681 90.4149 85.7851 103.682C83.7021 116.949 81.9691 127.685 81.9281 127.679Z" fill="#263238"/>
<path d="M94.8539 128.064C94.8099 128.064 96.4759 117.21 98.5779 103.845C100.68 90.48 102.419 79.645 102.464 79.652C102.509 79.659 100.842 90.499 98.7419 103.87C96.6419 117.241 94.8989 128.07 94.8539 128.064Z" fill="#263238"/>
<path d="M107.842 128.064C107.797 128.064 109.463 117.21 111.565 103.845C113.667 90.48 115.407 79.645 115.451 79.652C115.495 79.659 113.833 90.499 111.731 103.87C109.629 117.241 107.892 128.07 107.842 128.064Z" fill="#263238"/>
<path d="M120.825 128.121C120.781 128.121 122.45 117.255 124.555 103.867C126.66 90.4789 128.4 79.6299 128.448 79.6389C128.496 79.6479 126.823 90.5019 124.718 103.893C122.613 117.284 120.87 128.14 120.825 128.121Z" fill="#263238"/>
<g opacity="0.2">
<path opacity="0.2" d="M112.652 80.5169C113.412 80.1175 114.071 79.5517 114.582 78.8617C115.092 78.1716 115.44 77.3753 115.6 76.5319C115.906 74.8455 116.04 73.1324 116 71.4189C115.96 69.6995 116.352 67.9975 117.138 66.4679C117.657 65.5999 118.385 64.8779 118.96 64.0419C119.277 63.6424 119.51 63.1831 119.646 62.6913C119.782 62.1996 119.817 61.6855 119.749 61.1799L109.961 61.2309L112.652 80.5169Z" fill="black"/>
</g>
<path d="M72.0701 92.973C72.0426 93.0157 72.0089 93.0541 71.9701 93.087L71.6771 93.405C71.4191 93.669 71.0411 94.041 70.5641 94.505C69.6101 95.421 68.2841 96.667 66.7741 98.005C65.2641 99.343 63.8641 100.505 62.8371 101.332C62.3221 101.745 61.9021 102.076 61.6091 102.286L61.2691 102.54C61.2311 102.573 61.1883 102.6 61.1421 102.62C61.1734 102.585 61.2067 102.551 61.2421 102.52L61.5601 102.24L62.7521 101.232C63.7631 100.383 65.1521 99.203 66.6521 97.874C68.1521 96.545 69.5141 95.311 70.4681 94.417L71.6321 93.352L71.9501 93.069C71.986 93.0306 72.0266 92.997 72.0711 92.969L72.0701 92.973Z" fill="#263238"/>
<path d="M71.335 102.745C71.2 102.627 71.0737 102.499 70.957 102.363L69.957 101.301C69.098 100.389 67.947 99.161 66.678 97.801L63.365 94.335L62.365 93.282C62.2381 93.157 62.1202 93.0233 62.012 92.882C62.1557 92.9883 62.2896 93.1075 62.412 93.238C62.66 93.473 63.012 93.82 63.452 94.252C64.323 95.117 65.513 96.328 66.801 97.69C68.089 99.052 69.234 100.304 70.048 101.223C70.455 101.681 70.783 102.056 71.002 102.317C71.1263 102.448 71.2381 102.591 71.336 102.743L71.335 102.745Z" fill="#263238"/>
<path d="M74.7321 95.8949C74.7321 95.8949 74.7641 95.8119 74.8321 95.6499C74.9377 95.4146 75.0656 95.1899 75.2141 94.9789C75.7988 94.1622 76.6233 93.5478 77.5731 93.2209C78.2535 92.9748 78.9792 92.8793 79.7001 92.9409C80.5587 93.0244 81.3862 93.3065 82.1171 93.7649C82.9609 94.2849 83.6736 94.9922 84.2001 95.8319C84.809 96.7695 85.1123 97.8728 85.0681 98.9899C85.032 99.5932 84.8449 100.178 84.5241 100.69C84.1885 101.221 83.7415 101.672 83.2141 102.013C82.0908 102.733 80.7682 103.08 79.4361 103.002C78.7384 102.965 78.0513 102.815 77.4011 102.56C76.7243 102.296 76.1156 101.883 75.6201 101.352C75.3739 101.072 75.1664 100.761 75.0031 100.426C74.8475 100.085 74.7405 99.723 74.6851 99.3519C74.5794 98.5909 74.6457 97.8159 74.8791 97.0839C75.3655 95.558 76.4199 94.2774 77.8241 93.5069C78.552 93.1072 79.362 92.8796 80.1916 92.8416C81.0213 92.8037 81.8486 92.9563 82.6101 93.2879C83.3991 93.6203 84.0901 94.1491 84.6171 94.8239C85.1447 95.517 85.4744 96.3403 85.5711 97.2059C85.6812 98.0838 85.539 98.9749 85.1611 99.7749C84.967 100.177 84.7116 100.546 84.4041 100.869C84.0915 101.188 83.7389 101.465 83.3551 101.693C82.5806 102.12 81.7266 102.382 80.8462 102.464C79.9659 102.546 79.078 102.446 78.2381 102.17C77.4109 101.916 76.6506 101.482 76.0121 100.898C75.3783 100.313 74.9453 99.5433 74.7751 98.6979C74.5959 97.8677 74.7141 97.0009 75.1091 96.2489C75.3094 95.8784 75.5845 95.5535 75.9171 95.2949C76.2443 95.0481 76.6093 94.8559 76.9981 94.7259C77.7617 94.481 78.5628 94.3733 79.3641 94.4079C80.1443 94.4135 80.9204 94.5204 81.6731 94.7259C82.4172 94.9217 83.1047 95.29 83.6801 95.8009C84.2313 96.3149 84.6073 96.9889 84.7551 97.7279C84.901 98.4419 84.8583 99.1815 84.6311 99.8739C84.406 100.542 84.0256 101.147 83.5211 101.639C82.5632 102.576 81.2945 103.128 79.9561 103.191C79.3298 103.224 78.7033 103.133 78.1121 102.924C77.5446 102.72 77.0343 102.383 76.6241 101.941C76.2356 101.519 75.9418 101.019 75.7621 100.475C75.5849 99.9644 75.5062 99.4248 75.5301 98.8849C75.5756 97.8851 75.9746 96.9339 76.6561 96.2009C77.2386 95.5636 77.9757 95.0873 78.7961 94.8179C79.485 94.5947 80.2147 94.5264 80.9331 94.6179C81.9258 94.7403 82.8696 95.1194 83.6711 95.7179C83.879 95.8701 84.0755 96.0372 84.2591 96.2179C84.3831 96.3419 84.4431 96.4089 84.4431 96.4089C84.4431 96.4089 84.3731 96.3489 84.2491 96.2309C84.0594 96.0553 83.859 95.8916 83.6491 95.7409C82.8465 95.1591 81.9084 94.7925 80.9241 94.6759C80.1479 94.5862 79.3615 94.6838 78.6308 94.9604C77.9001 95.237 77.2462 95.6847 76.7241 96.2659C76.06 96.9831 75.6732 97.9134 75.6331 98.8899C75.6114 99.4193 75.6902 99.9479 75.8651 100.448C76.0425 100.976 76.3298 101.46 76.7081 101.869C77.1063 102.298 77.6015 102.625 78.1521 102.823C78.7298 103.024 79.3412 103.111 79.9521 103.078C81.2584 103.013 82.4954 102.471 83.4281 101.554C83.9156 101.078 84.283 100.493 84.5001 99.8469C84.7175 99.1772 84.7568 98.4624 84.6141 97.7729C84.4708 97.0637 84.1097 96.4169 83.5811 95.9229C83.0217 95.4309 82.3554 95.0759 81.6351 94.8859C80.8948 94.6832 80.1315 94.5764 79.3641 94.5679C78.5817 94.5383 77.8003 94.646 77.0551 94.8859C76.295 95.1185 75.6516 95.631 75.2551 96.3199C74.8785 97.0391 74.766 97.8674 74.9371 98.6609C75.1018 99.4719 75.519 100.21 76.1291 100.769C76.7476 101.341 77.4863 101.767 78.2911 102.016C79.1086 102.285 79.9727 102.382 80.8295 102.302C81.6863 102.222 82.5174 101.966 83.2711 101.551C83.6435 101.331 83.9845 101.062 84.2851 100.751C84.5802 100.441 84.8258 100.087 85.0131 99.7019C85.3797 98.9302 85.5185 98.0698 85.4131 97.2219C85.3216 96.387 85.0062 95.5923 84.5001 94.9219C83.9905 94.2697 83.3227 93.7585 82.5601 93.4369C81.8212 93.1141 81.0181 92.9652 80.2126 93.0016C79.4072 93.038 78.6208 93.2588 77.9141 93.6469C76.545 94.397 75.5168 95.6448 75.0421 97.1319C74.8155 97.8419 74.7492 98.5933 74.8481 99.3319C74.9053 99.6904 75.0124 100.039 75.1661 100.368C75.3232 100.69 75.5219 100.989 75.7571 101.259C76.2367 101.773 76.8255 102.173 77.4801 102.429C78.1161 102.68 78.7882 102.829 79.4711 102.868C80.7741 102.947 82.0689 102.614 83.1711 101.914C83.6805 101.602 84.1096 101.174 84.4238 100.666C84.738 100.158 84.9285 99.5832 84.9801 98.9879C85.0247 97.8953 84.7302 96.8156 84.1371 95.8969C83.6246 95.0685 82.9287 94.3688 82.1031 93.8519C81.3856 93.3976 80.5727 93.1156 79.7281 93.0279C78.8791 92.9524 78.0248 93.0944 77.2459 93.4404C76.467 93.7865 75.7891 94.3253 75.2761 95.0059C75.1239 95.2132 74.992 95.4345 74.8821 95.6669C74.8268 95.7393 74.7767 95.8155 74.7321 95.8949Z" fill="#0097C2"/>
<path d="M83.342 104.675C83.371 104.71 80.849 106.866 77.707 109.493C74.565 112.12 71.983 114.215 71.964 114.18C71.945 114.145 74.457 111.989 77.599 109.366C80.741 106.743 83.318 104.64 83.342 104.675Z" fill="#263238"/>
<path d="M83.8971 113.896C83.7473 113.809 83.6057 113.709 83.4741 113.596L82.3551 112.725C81.4171 111.981 80.1291 110.944 78.7111 109.793C77.2931 108.642 76.0181 107.593 75.0981 106.826L74.0141 105.91C73.8768 105.805 73.7489 105.688 73.6321 105.561C73.781 105.649 73.9225 105.75 74.0551 105.861L75.1711 106.732C76.1091 107.476 77.3971 108.513 78.8151 109.664C80.2331 110.815 81.5081 111.864 82.4311 112.631L83.5121 113.544C83.6486 113.652 83.7773 113.77 83.8971 113.896Z" fill="#263238"/>
<path d="M109.893 104.799C109.918 104.834 107.508 106.682 104.503 108.933C101.498 111.184 99.0429 112.962 99.0139 112.924C98.9849 112.886 101.399 111.041 104.404 108.79C107.409 106.539 109.864 104.761 109.893 104.799Z" fill="#263238"/>
<path d="M110.828 112.622C110.806 112.66 108.243 111.073 105.104 109.073C101.965 107.073 99.4501 105.425 99.4721 105.384C99.4941 105.343 102.058 106.936 105.196 108.933C108.334 110.93 110.866 112.584 110.828 112.622Z" fill="#263238"/>
<path d="M83.7599 128.066C83.7249 128.035 86.2309 125.408 89.3539 122.206C92.4769 119.004 95.0369 116.425 95.0779 116.456C95.1189 116.487 92.6069 119.115 89.4839 122.32C86.3609 125.525 83.7919 128.098 83.7599 128.066Z" fill="#0097C2"/>
<path d="M94.352 128.064C94.3158 128.029 94.2824 127.992 94.252 127.952L93.985 127.634C93.737 127.316 93.406 126.906 93.002 126.404C92.172 125.367 90.995 123.958 89.631 122.461C88.267 120.964 86.973 119.661 86.019 118.74L84.887 117.627L84.569 117.327C84.5318 117.294 84.4982 117.256 84.469 117.216C84.512 117.241 84.5525 117.269 84.59 117.302L84.908 117.578C85.191 117.82 85.592 118.178 86.081 118.631C87.054 119.531 88.364 120.825 89.735 122.326C91.106 123.827 92.279 125.252 93.074 126.307C93.481 126.835 93.802 127.261 94.028 127.579L94.273 127.929C94.3048 127.971 94.3313 128.016 94.352 128.064Z" fill="#0097C2"/>
<path d="M68.3211 114.689C68.3211 114.689 68.4211 122.502 66.4511 127.18L54.4341 125.132C54.4341 125.132 58.0531 117.732 57.0671 113.614L68.3211 114.689Z" fill="#EBEBEB"/>
<path d="M68.3179 114.396C68.3179 114.396 66.8109 123.987 65.8889 126.849L53.9419 124.477C53.9419 124.477 56.3999 115.204 56.3679 112.622L68.3179 114.396Z" fill="#0097C2"/>
<path d="M57.582 116.921C57.582 116.965 59.356 117.379 61.566 117.843C63.776 118.307 65.573 118.648 65.582 118.606C65.591 118.564 63.808 118.148 61.597 117.684C59.386 117.22 57.592 116.876 57.582 116.921Z" fill="white"/>
<path d="M57.2771 118.952C57.2771 118.996 59.0511 119.407 61.2621 119.874C63.4731 120.341 65.2691 120.679 65.2781 120.637C65.2871 120.595 63.5041 120.179 61.2941 119.715C59.0841 119.251 57.2861 118.899 57.2771 118.952Z" fill="white"/>
<path d="M59.033 121.252C59.2365 121.341 59.4501 121.405 59.669 121.443C60.079 121.543 60.648 121.672 61.275 121.805C61.902 121.938 62.475 122.047 62.894 122.123C63.1163 122.179 63.3447 122.207 63.574 122.206C63.3625 122.117 63.1418 122.052 62.916 122.012C62.509 121.912 61.94 121.78 61.31 121.649C60.68 121.518 60.11 121.405 59.695 121.332C59.4787 121.278 59.2567 121.252 59.034 121.252H59.033Z" fill="white"/>
<path d="M125.175 92.752C125.175 92.752 126.406 100.365 125.159 105.221L113.126 104.963C113.126 104.963 115.587 97.21 114.026 93.334L125.175 92.752Z" fill="#EBEBEB"/>
<path d="M125.121 92.464C125.121 92.464 125.041 102.039 124.555 104.964L112.542 104.392C112.542 104.392 113.595 94.979 113.178 92.464H125.121Z" fill="#455A64"/>
<path d="M114.885 96.7249C114.885 96.7699 116.691 96.8079 118.92 96.8109C121.149 96.8139 122.959 96.7819 122.959 96.7379C122.959 96.6939 121.153 96.6549 118.92 96.6519C116.687 96.6489 114.885 96.6799 114.885 96.7249Z" fill="white"/>
<path d="M114.999 98.7519C114.999 98.7959 116.805 98.8339 119.034 98.8379C121.263 98.8419 123.072 98.8089 123.072 98.7639C123.072 98.7189 121.266 98.6819 119.034 98.6789C116.802 98.6759 114.999 98.7059 114.999 98.7519Z" fill="white"/>
<path d="M117.152 100.617C117.374 100.665 117.6 100.685 117.827 100.678C118.243 100.678 118.819 100.7 119.455 100.703C120.091 100.706 120.663 100.703 121.08 100.681C121.306 100.69 121.532 100.672 121.754 100.627C121.533 100.58 121.306 100.561 121.08 100.57C120.663 100.554 120.091 100.544 119.455 100.541C118.819 100.538 118.243 100.541 117.827 100.563C117.601 100.554 117.374 100.572 117.152 100.617Z" fill="white"/>
<path d="M127.719 70.7989C126.533 70.7552 125.379 70.3964 124.377 69.7593C123.376 69.1222 122.562 68.2298 122.019 67.1739C120.863 64.9666 120.505 62.4279 121.005 59.9869C121.251 58.5139 121.874 57.1298 122.814 55.9694C123.754 54.8091 124.979 53.9121 126.369 53.3659C128.579 52.6569 132.529 53.0479 134.392 56.1659C135.28 57.6912 135.721 59.4358 135.664 61.1999C135.647 61.4528 135.531 61.6887 135.34 61.8559C135.245 61.9382 135.136 62.0014 135.017 62.0419C134.868 62.0922 134.709 62.105 134.554 62.0792C134.399 62.0534 134.253 61.9898 134.128 61.894C134.003 61.7982 133.904 61.6732 133.839 61.53C133.774 61.3868 133.746 61.2298 133.756 61.0729C133.773 59.6957 133.42 58.3393 132.732 57.1459C131.295 54.7459 128.144 54.7929 126.932 55.1809C124.706 55.8929 123.281 58.2999 122.852 60.3709C122.44 62.3745 122.734 64.4587 123.682 66.2709C124.093 67.1014 124.743 67.7904 125.548 68.2498C126.353 68.7092 127.277 68.9182 128.201 68.8499C128.451 68.8116 128.706 68.8742 128.91 69.0239C129.114 69.1737 129.25 69.3983 129.289 69.6484C129.327 69.8985 129.264 70.1536 129.114 70.3575C128.965 70.5615 128.74 70.6976 128.49 70.7359C128.234 70.7755 127.976 70.7956 127.717 70.7959L127.719 70.7989Z" fill="#263238"/>
<path d="M66.1299 70.799C64.9434 70.7556 63.7899 70.3969 62.7881 69.7598C61.7863 69.1227 60.9723 68.2301 60.4299 67.174C59.2725 64.9672 58.9129 62.4284 59.4119 59.987C59.9679 57.303 61.8509 54.212 64.8179 53.36C66.2483 52.9727 67.7648 53.0494 69.1489 53.579L68.4619 55.36C67.466 54.9814 66.3769 54.9223 65.3459 55.191C63.1579 55.827 61.7339 58.25 61.2949 60.371C60.8832 62.3745 61.1764 64.4588 62.1249 66.271C62.5361 67.1029 63.1864 67.793 63.9924 68.2529C64.7985 68.7127 65.7235 68.9213 66.6489 68.852L66.9379 70.738C66.6706 70.7792 66.4004 70.7992 66.1299 70.798V70.799Z" fill="#263238"/>
<path d="M126.934 61.252L126.056 66.052H138.97L140.118 61.295L126.934 61.252Z" fill="#0097C2"/>
<path d="M69.4019 70.039C69.4024 70.5144 69.2379 70.9752 68.9365 71.3429C68.6352 71.7105 68.2156 71.9623 67.7494 72.0552C67.2832 72.1481 66.7992 72.0764 66.3799 71.8524C65.9607 71.6284 65.6321 71.2658 65.4502 70.8266C65.2683 70.3874 65.2444 69.8987 65.3826 69.4439C65.5208 68.989 65.8124 68.5962 66.2078 68.3323C66.6033 68.0684 67.078 67.9499 67.551 67.9969C68.0241 68.0439 68.4662 68.2535 68.8019 68.59C69.1857 68.9747 69.4015 69.4957 69.4019 70.039Z" fill="#263238"/>
<path d="M130.942 70.039C130.943 70.5146 130.778 70.9757 130.477 71.3437C130.175 71.7116 129.755 71.9635 129.289 72.0565C128.822 72.1495 128.338 72.0779 127.919 71.8537C127.499 71.6296 127.17 71.2669 126.988 70.8274C126.806 70.3879 126.783 69.899 126.921 69.4439C127.059 68.9888 127.351 68.5957 127.747 68.3317C128.142 68.0678 128.617 67.9492 129.091 67.9963C129.564 68.0434 130.006 68.2532 130.342 68.59C130.532 68.7802 130.683 69.0061 130.786 69.2548C130.889 69.5034 130.942 69.7699 130.942 70.039Z" fill="#263238"/>
<path d="M97.0489 30.28L93.6719 43.089L82.0139 44.342V46.409L98.3939 46.985L101.473 32.615L97.0489 30.28Z" fill="#FFAAAA"/>
<path d="M101.962 47.324C101.962 47.324 83.7469 46.456 78.5619 50.504C73.3769 54.552 75.8879 61.198 75.8879 61.198L105.2 61.122L107.789 46.262L101.962 47.324Z" fill="#263238"/>
<path d="M105.063 57.128C104.974 57.1302 104.886 57.1239 104.799 57.109C104.627 57.09 104.376 57.065 104.052 57.023C103.416 56.944 102.462 56.81 101.317 56.616C98.3126 56.1048 95.3408 55.418 92.4169 54.559C90.7059 54.053 89.0879 53.545 87.5929 53.173C86.2736 52.8315 84.9243 52.6185 83.5639 52.537C82.6462 52.4856 81.7256 52.5389 80.8199 52.696C80.5019 52.734 80.2569 52.817 80.0849 52.845C79.9999 52.8661 79.9138 52.8821 79.8269 52.893C79.9077 52.858 79.9918 52.8313 80.0779 52.813C80.3168 52.7386 80.5599 52.6781 80.8059 52.632C81.7138 52.4486 82.6407 52.377 83.5659 52.419C84.9457 52.4846 86.3155 52.6879 87.6549 53.026C89.1549 53.388 90.7809 53.897 92.4849 54.403C95.394 55.2563 98.3457 55.9572 101.328 56.503C102.476 56.713 103.408 56.862 104.054 56.964L104.798 57.082C104.888 57.0916 104.977 57.1086 105.065 57.133L105.063 57.128Z" fill="#455A64"/>
<path d="M88.1329 53.074C87.6269 52.6569 87.0878 52.2816 86.5209 51.952C85.9267 51.6739 85.311 51.4442 84.6799 51.265C84.8758 51.2478 85.0731 51.2672 85.2619 51.322C85.727 51.4219 86.1764 51.5844 86.5979 51.805C87.0189 52.0269 87.4083 52.304 87.7559 52.629C87.9083 52.7527 88.0365 52.9036 88.1339 53.074H88.1329Z" fill="#455A64"/>
<path d="M103.893 86.918L104.137 94.572L102.598 100.684C102.573 100.789 102.57 100.897 102.589 101.003C102.608 101.109 102.648 101.21 102.708 101.3C102.768 101.389 102.845 101.466 102.936 101.524C103.027 101.582 103.129 101.621 103.236 101.638C103.359 101.661 103.486 101.653 103.605 101.617C103.725 101.58 103.834 101.516 103.923 101.428C105.081 100.296 109.329 96.111 109.275 95.555C109.218 94.919 109.552 87.455 109.552 87.455L103.893 86.918Z" fill="#0097C2"/>
<g opacity="0.6">
<path opacity="0.6" d="M103.206 101.652L109.248 95.052V95.37C109.251 95.6511 109.154 95.9241 108.974 96.14C108.494 96.716 107.13 98.277 103.921 101.44C103.829 101.531 103.717 101.597 103.593 101.634C103.469 101.671 103.338 101.676 103.212 101.65L103.206 101.652Z" fill="white"/>
</g>
<g opacity="0.6">
<path opacity="0.6" d="M107.642 92.591C107.545 92.6622 107.479 92.767 107.456 92.8848C107.433 93.0026 107.455 93.1247 107.518 93.227C107.585 93.3222 107.686 93.3884 107.8 93.412C107.914 93.4356 108.033 93.4148 108.132 93.354C108.232 93.2802 108.3 93.1716 108.324 93.0497C108.347 92.9279 108.324 92.8016 108.259 92.696C108.18 92.6028 108.068 92.544 107.946 92.532C107.824 92.5201 107.703 92.5559 107.607 92.632" fill="white"/>
</g>
<path d="M104.925 98.286C104.881 98.309 104.703 97.911 104.248 97.698C103.967 97.5874 103.666 97.5334 103.364 97.539C103.364 97.52 103.453 97.46 103.631 97.431C103.867 97.4023 104.106 97.4418 104.321 97.545C104.535 97.6481 104.715 97.8105 104.84 98.013C104.929 98.169 104.942 98.28 104.925 98.286Z" fill="#263238"/>
<path d="M104.389 99.32C104.169 99.2001 103.941 99.0939 103.708 99.002C103.46 98.9578 103.21 98.9281 102.958 98.913C103.075 98.8376 103.208 98.7916 103.347 98.7789C103.485 98.7662 103.624 98.7871 103.753 98.84C104.204 98.961 104.427 99.298 104.389 99.32Z" fill="#263238"/>
<path d="M105.927 96.952C105.602 96.7379 105.262 96.5478 104.91 96.383C104.537 96.2693 104.157 96.1843 103.771 96.129C104.172 96.045 104.588 96.0781 104.97 96.2242C105.352 96.3703 105.685 96.6233 105.927 96.953V96.952Z" fill="#263238"/>
<path d="M106.049 94.6299C106.03 94.6779 105.604 94.5029 105.049 94.4899C104.494 94.4769 104.063 94.6109 104.049 94.5629C104.358 94.393 104.706 94.3095 105.058 94.3213C105.41 94.3331 105.753 94.4397 106.049 94.6299Z" fill="#263238"/>
<path d="M106.033 92.3809C105.698 92.2757 105.351 92.2168 105 92.2059C104.652 92.2463 104.311 92.3352 103.988 92.4699C104.047 92.3758 104.132 92.3008 104.233 92.2539C104.467 92.1216 104.729 92.0466 104.998 92.0349C105.267 92.0233 105.534 92.0754 105.779 92.1869C105.954 92.2729 106.042 92.3619 106.033 92.3809Z" fill="#263238"/>
<path d="M105.009 91.777C104.989 91.6817 104.989 91.5833 105.009 91.488C105.033 91.2221 105.109 90.9636 105.235 90.728C105.309 90.5465 105.442 90.3953 105.613 90.299C105.672 90.2726 105.738 90.2649 105.801 90.2769C105.865 90.2888 105.923 90.3199 105.969 90.366C106.051 90.4613 106.095 90.5833 106.093 90.709C106.078 90.9654 105.975 91.2087 105.801 91.3977C105.627 91.5867 105.393 91.7097 105.139 91.746C104.885 91.7741 104.629 91.7263 104.403 91.6086C104.176 91.4909 103.99 91.3087 103.867 91.085C103.836 91.0284 103.818 90.9659 103.814 90.9017C103.81 90.8375 103.819 90.7732 103.842 90.713C103.872 90.656 103.918 90.6093 103.975 90.5791C104.031 90.549 104.096 90.5367 104.16 90.544C104.349 90.5841 104.524 90.6727 104.668 90.801C104.877 90.966 105.055 91.1659 105.196 91.392C105.252 91.4717 105.293 91.5612 105.317 91.656C105.115 91.3686 104.872 91.1125 104.595 90.896C104.466 90.79 104.313 90.7169 104.15 90.683C104.115 90.6771 104.078 90.6825 104.046 90.6985C104.014 90.7145 103.988 90.7402 103.972 90.772C103.96 90.8129 103.957 90.8557 103.963 90.8978C103.968 90.9399 103.982 90.9804 104.004 91.017C104.115 91.2067 104.279 91.3603 104.475 91.4596C104.671 91.5589 104.892 91.5996 105.111 91.577C105.328 91.5491 105.528 91.4477 105.679 91.2897C105.83 91.1317 105.922 90.9267 105.94 90.709C105.945 90.6218 105.918 90.5357 105.864 90.467C105.84 90.4393 105.807 90.4203 105.771 90.4129C105.735 90.4055 105.697 90.4101 105.664 90.426C105.524 90.5112 105.414 90.6362 105.346 90.785C105.178 91.0941 105.064 91.4296 105.009 91.777Z" fill="#263238"/>
<path d="M107.772 46.262C107.772 46.262 99.895 61.152 99.787 63.752C99.679 66.352 99.787 90.298 99.787 90.298H111.979C112.297 90.298 114.126 79.508 113.753 77.025C113.38 74.542 112.068 61.192 112.068 61.192H119.083C120.228 59.9009 120.884 58.249 120.937 56.524C120.691 54.4374 120.043 52.4182 119.029 50.578C118.429 49.578 114.577 44.333 114.577 44.333L107.772 46.262Z" fill="#263238"/>
<path d="M107.242 47.27C107.233 47.2998 107.222 47.3287 107.207 47.356C107.178 47.42 107.14 47.499 107.092 47.598L106.635 48.527C106.428 48.927 106.183 49.421 105.897 49.99L105.439 50.903L104.959 51.943L102.596 57.06C102.148 58.014 101.677 59.035 101.187 60.081L100.446 61.671C100.207 62.221 100.026 62.7944 99.9061 63.382C99.7851 63.9711 99.7221 64.5706 99.7181 65.172C99.6991 65.767 99.6861 66.355 99.6771 66.93C99.6771 68.087 99.6551 69.201 99.6581 70.263C99.6581 72.387 99.6831 74.301 99.7051 75.907C99.7271 77.513 99.7471 78.801 99.7631 79.723V81.123C99.7571 81.0926 99.7571 81.0614 99.7631 81.031V80.764C99.7631 80.513 99.7371 80.169 99.7181 79.727C99.6861 78.827 99.6451 77.527 99.6101 75.911C99.5751 74.295 99.5371 72.394 99.5271 70.267V66.929C99.5271 66.35 99.5461 65.762 99.5691 65.164C99.5723 64.5531 99.6349 63.9439 99.7561 63.345C99.8792 62.7462 100.065 62.162 100.31 61.602L101.054 60.012L102.472 56.997L104.882 51.897L105.372 50.86C105.541 50.542 105.69 50.224 105.843 49.954L106.603 48.504C106.809 48.113 106.975 47.804 107.089 47.588C107.143 47.488 107.189 47.416 107.22 47.353C107.236 47.3282 107.243 47.2993 107.242 47.27Z" fill="#455A64"/>
<path d="M104.694 52.342C104.441 51.7369 104.228 51.1155 104.058 50.482C103.834 49.8653 103.653 49.2342 103.514 48.593C103.81 49.1809 104.045 49.7978 104.214 50.434C104.439 51.0519 104.6 51.6912 104.694 52.342Z" fill="#455A64"/>
<path d="M113.78 76.5579C113.759 76.5037 113.746 76.4468 113.741 76.3889C113.727 76.2599 113.704 76.0969 113.675 75.9019C113.617 75.4539 113.544 74.8429 113.452 74.1019C113.277 72.5629 113.042 70.4739 112.781 68.1649C112.52 65.8559 112.307 63.7419 112.181 62.2189C112.12 61.4749 112.07 60.8639 112.031 60.4189C112.031 60.2189 112.006 60.0569 111.996 59.9259C111.992 59.8686 111.992 59.8112 111.996 59.7539C112.016 59.8078 112.028 59.8645 112.031 59.9219C112.047 60.0519 112.07 60.2149 112.095 60.4119C112.146 60.8599 112.216 61.4679 112.295 62.2119C112.463 63.7509 112.695 65.8439 112.931 68.1519C113.167 70.4599 113.395 72.5519 113.566 74.0919C113.636 74.8359 113.697 75.4469 113.738 75.8919C113.754 76.0919 113.767 76.2549 113.776 76.3849C113.78 76.4422 113.78 76.4997 113.776 76.5569L113.78 76.5579Z" fill="#455A64"/>
<path d="M110.682 6.37897C110.632 5.74472 110.829 5.11561 111.231 4.62282C111.633 4.13004 112.211 3.81162 112.842 3.73397C113.479 3.68745 114.115 3.83247 114.669 4.15039C115.222 4.46831 115.668 4.94458 115.949 5.51797C116.219 6.09478 116.367 6.72099 116.384 7.35756C116.401 7.99413 116.287 8.62743 116.049 9.21797C115.731 10.018 115.143 10.837 114.287 10.9C113.874 10.8687 113.474 10.7457 113.115 10.54C112.756 10.3343 112.447 10.0511 112.211 9.71097" fill="#263238"/>
<path d="M101.73 12.6879C99.186 7.11394 105.23 4.31194 108.513 5.24094C111.604 6.11494 112.924 7.65494 113.433 9.72194C113.99 11.7956 113.879 13.9922 113.115 15.9989C112.966 16.5036 112.688 16.9609 112.309 17.3256C111.93 17.6903 111.462 17.95 110.952 18.0789" fill="#263238"/>
<path d="M110.485 8.33496C110.747 8.36182 110.989 8.48639 111.163 8.68381C111.337 8.88123 111.43 9.13696 111.423 9.39996L110.829 23.589C110.806 25.265 108.361 26.213 106.564 26.174C104.767 26.135 104.695 25.246 104.656 23.652C104.615 20.99 104.615 19.989 104.615 20.005C103.858 19.808 103.182 19.3759 102.685 18.7707C102.189 18.1655 101.897 17.4184 101.852 16.637C101.656 14.6721 101.643 12.6932 101.814 10.726C101.928 8.93596 103.114 6.73496 104.901 6.90996L110.485 8.33496Z" fill="#FFAAAA"/>
<path d="M102.983 12.424C102.981 12.5242 103.019 12.6209 103.088 12.6935C103.157 12.7661 103.252 12.8086 103.352 12.812C103.401 12.8162 103.45 12.8104 103.496 12.795C103.542 12.78 103.585 12.7555 103.622 12.723C103.659 12.6908 103.689 12.6513 103.71 12.607C103.732 12.5631 103.744 12.515 103.746 12.466C103.747 12.3661 103.709 12.2698 103.64 12.1974C103.571 12.125 103.477 12.0822 103.377 12.078C103.328 12.0742 103.279 12.0802 103.233 12.0956C103.186 12.1111 103.144 12.1357 103.107 12.168C103.07 12.2003 103.04 12.2398 103.019 12.284C102.998 12.3281 102.985 12.3761 102.983 12.425V12.424Z" fill="#263238"/>
<path d="M102.351 11.995C102.398 12.043 102.691 11.83 103.101 11.83C103.511 11.83 103.816 12.037 103.861 11.986C103.906 11.935 103.836 11.875 103.702 11.779C103.524 11.6555 103.312 11.5899 103.095 11.591C102.881 11.589 102.672 11.6571 102.5 11.785C102.373 11.881 102.328 11.973 102.351 11.995Z" fill="#263238"/>
<path d="M107.012 12.424C107.011 12.5218 107.047 12.6165 107.113 12.6886C107.179 12.7607 107.27 12.8048 107.368 12.812C107.417 12.8159 107.466 12.8099 107.513 12.7945C107.559 12.779 107.602 12.7544 107.639 12.722C107.675 12.6892 107.705 12.6498 107.727 12.606C107.748 12.5617 107.76 12.5138 107.763 12.465C107.763 12.3651 107.725 12.2689 107.657 12.196C107.588 12.1239 107.494 12.0812 107.394 12.077C107.297 12.0723 107.203 12.1063 107.131 12.1714C107.06 12.2364 107.017 12.3273 107.012 12.424Z" fill="#263238"/>
<path d="M106.414 12.071C106.462 12.119 106.751 11.906 107.162 11.906C107.573 11.906 107.877 12.113 107.922 12.065C107.967 12.017 107.896 11.95 107.763 11.855C107.585 11.7311 107.372 11.6654 107.155 11.667C106.939 11.6659 106.729 11.7339 106.555 11.861C106.414 11.952 106.379 12.052 106.414 12.071Z" fill="#263238"/>
<path d="M104.906 15.127C104.689 15.0601 104.465 15.0195 104.239 15.006C104.134 15.006 104.032 14.974 104.016 14.906C104.006 14.7953 104.031 14.6843 104.086 14.588C104.186 14.334 104.286 14.067 104.404 13.788C104.692 13.1075 104.926 12.4053 105.104 11.688C104.759 12.3413 104.469 13.022 104.236 13.723L103.936 14.531C103.87 14.6581 103.851 14.8042 103.882 14.944C103.897 14.9826 103.921 15.0169 103.952 15.044C103.981 15.0697 104.015 15.0888 104.052 15.1C104.111 15.1152 104.171 15.1236 104.231 15.125C104.455 15.1538 104.682 15.1545 104.906 15.127Z" fill="#263238"/>
<path d="M104.624 20.002C106.036 20.0278 107.427 19.659 108.641 18.937C108.241 19.6028 107.647 20.1299 106.938 20.4472C106.23 20.7644 105.441 20.8565 104.678 20.711L104.624 20.002Z" fill="#EB996E"/>
<path d="M105.082 16.12C105.161 16.0221 105.263 15.9457 105.379 15.898C105.495 15.8502 105.621 15.8327 105.746 15.847C105.837 15.8547 105.926 15.8809 106.007 15.924C106.088 15.9672 106.16 16.0264 106.217 16.098C106.272 16.1666 106.304 16.2504 106.31 16.338C106.315 16.4256 106.294 16.5127 106.249 16.588C106.183 16.662 106.096 16.7146 105.999 16.739C105.903 16.7634 105.802 16.7585 105.708 16.725C105.512 16.656 105.332 16.5478 105.18 16.407C105.134 16.3742 105.094 16.3332 105.063 16.286C105.048 16.2633 105.04 16.2367 105.04 16.2095C105.04 16.1823 105.048 16.1557 105.063 16.133" fill="#EB996E"/>
<path d="M106.121 15.414C106.055 15.414 106.051 15.856 105.67 16.174C105.41 16.3432 105.116 16.4519 104.808 16.492C104.808 16.543 104.908 16.578 105.126 16.584C105.389 16.5872 105.644 16.4984 105.848 16.333C106.042 16.1737 106.167 15.946 106.198 15.697C106.201 15.522 106.15 15.411 106.121 15.414Z" fill="#263238"/>
<path d="M106.217 11.3519C106.258 11.4629 106.672 11.4089 107.155 11.4699C107.638 11.5309 108.03 11.6579 108.093 11.5589C108.122 11.5109 108.052 11.4059 107.893 11.2949C107.682 11.1595 107.442 11.0765 107.193 11.0529C106.946 11.022 106.694 11.0515 106.461 11.1389C106.29 11.2059 106.201 11.2949 106.217 11.3519Z" fill="#263238"/>
<path d="M102.503 10.7999C102.576 10.8999 102.859 10.7999 103.203 10.7999C103.547 10.7999 103.839 10.8639 103.903 10.7649C103.932 10.7169 103.903 10.6219 103.76 10.5359C103.592 10.4258 103.394 10.3712 103.194 10.3799C102.993 10.3843 102.799 10.4499 102.637 10.5679C102.513 10.6599 102.471 10.7519 102.503 10.7999Z" fill="#263238"/>
<path d="M106.392 5.93102C105.378 5.98256 104.394 6.28865 103.53 6.82102C102.552 7.32779 101.815 8.20222 101.482 9.25202C101.44 9.36033 101.421 9.476 101.425 9.59202C101.429 9.70781 101.457 9.82151 101.507 9.92602C101.602 10.0458 101.735 10.1289 101.884 10.1608C102.034 10.1928 102.189 10.1716 102.325 10.101C102.594 9.95437 102.823 9.74346 102.992 9.48702C103.059 9.76766 103.219 10.0172 103.447 10.1946C103.674 10.3721 103.955 10.4669 104.244 10.4635C104.532 10.4601 104.811 10.3588 105.035 10.1761C105.258 9.99336 105.412 9.74016 105.473 9.45802C105.495 9.74456 105.628 10.0113 105.842 10.2027C106.057 10.394 106.337 10.4952 106.624 10.485C106.91 10.46 107.183 10.3522 107.409 10.1745C107.635 9.99694 107.804 9.75732 107.896 9.48502C107.966 10.0019 108.145 10.498 108.42 10.941C108.561 11.1608 108.767 11.3318 109.009 11.4307C109.251 11.5297 109.517 11.5518 109.772 11.494C109.665 11.9338 109.672 12.3935 109.791 12.83C109.95 13.25 110.583 20.43 111.009 20.287C111.435 20.144 111.419 12.814 111.515 12.387C111.726 11.5704 111.833 10.7304 111.833 9.88702C111.861 9.01728 111.579 8.1659 111.037 7.485C110.495 6.80409 109.729 6.33802 108.875 6.17002C108.023 5.9747 107.148 5.89465 106.275 5.93202" fill="#263238"/>
<path d="M112.377 19.013C112.348 19.03 112.316 19.0438 112.284 19.054C112.195 19.0868 112.102 19.1092 112.008 19.121C111.566 19.1772 111.117 19.1067 110.713 18.9176C110.309 18.7285 109.968 18.4287 109.728 18.053C109.402 17.4871 109.265 16.8321 109.336 16.183C109.384 15.499 109.543 14.876 109.616 14.304C109.688 13.7958 109.733 13.284 109.75 12.771V11.731C109.736 11.6041 109.736 11.4759 109.75 11.349C109.788 11.4742 109.81 11.6034 109.817 11.734C109.851 12.0816 109.868 12.4307 109.867 12.78C109.866 13.2979 109.833 13.8153 109.767 14.329C109.697 14.914 109.548 15.541 109.5 16.199C109.432 16.8152 109.556 17.4374 109.856 17.98C110.117 18.412 110.519 18.7411 110.994 18.912C111.313 19.0335 111.654 19.0856 111.994 19.065C112.242 19.052 112.373 18.998 112.377 19.013Z" fill="#263238"/>
<path d="M105.342 5.5459C105.457 5.76372 105.511 6.00886 105.497 6.2549C105.509 6.8574 105.281 7.43992 104.864 7.87493C104.447 8.30994 103.875 8.56199 103.272 8.5759C103.027 8.59945 102.781 8.55553 102.559 8.4489C102.794 8.46099 103.03 8.46099 103.265 8.4489C103.83 8.41048 104.361 8.16335 104.754 7.75549C105.148 7.34764 105.375 6.80818 105.393 6.2419C105.399 5.8189 105.31 5.5519 105.342 5.5459Z" fill="#455A64"/>
<path d="M105.778 9.06299C105.794 9.06299 105.756 9.26299 105.527 9.48899C105.375 9.6257 105.197 9.73027 105.003 9.79642C104.81 9.86258 104.605 9.88897 104.401 9.87399C104.001 9.83823 103.616 9.70613 103.278 9.48899C103.021 9.32699 102.878 9.20299 102.894 9.17099C103.048 9.21945 103.195 9.28662 103.333 9.37099C103.669 9.54544 104.035 9.65342 104.411 9.68899C104.784 9.71093 105.153 9.59808 105.45 9.37099C105.572 9.28264 105.682 9.17915 105.778 9.06299Z" fill="#455A64"/>
<path d="M112.981 8.1519C113.002 8.42556 112.983 8.70083 112.924 8.9689C112.834 9.63318 112.583 10.2653 112.192 10.8099C111.988 11.0801 111.731 11.3058 111.437 11.4731C111.143 11.6404 110.818 11.7458 110.481 11.7829C110.277 11.8014 110.071 11.7811 109.874 11.7229C109.737 11.6819 109.674 11.6399 109.674 11.6309C109.936 11.6778 110.204 11.6896 110.469 11.6659C111.102 11.5629 111.671 11.2215 112.059 10.7119C112.431 10.1848 112.686 9.58392 112.806 8.9499C112.848 8.67987 112.906 8.41269 112.981 8.1499V8.1519Z" fill="#455A64"/>
<path d="M113.528 9.5979C113.557 9.67962 113.573 9.76528 113.576 9.8519C113.597 10.0846 113.602 10.3185 113.591 10.5519C113.575 11.3345 113.295 12.0887 112.796 12.6919C112.515 13.0237 112.149 13.2732 111.738 13.4139C111.4 13.5244 111.04 13.5465 110.691 13.4779C110.457 13.433 110.235 13.3397 110.039 13.2039C109.906 13.1039 109.849 13.0319 109.855 13.0259C110.116 13.1918 110.406 13.3062 110.71 13.3629C111.038 13.4101 111.373 13.3786 111.687 13.2709C112.069 13.13 112.408 12.8935 112.672 12.5839C113.145 12.0028 113.426 11.2894 113.477 10.5419C113.528 9.9629 113.499 9.6009 113.528 9.5979Z" fill="#455A64"/>
<path d="M71.613 48.034L65.842 61.234H73.789L79.449 47.934L71.613 48.034Z" fill="#455A64"/>
<path d="M67.415 33.9939L73.924 46.7939H94.454L93.624 45.1209L87.677 44.9429L82.828 34.1519C82.6804 33.8245 82.4416 33.5466 82.1401 33.3514C81.8385 33.1563 81.4871 33.0523 81.128 33.0519H67.994C67.8814 33.0479 67.7698 33.0738 67.6705 33.1271C67.5713 33.1803 67.4879 33.259 67.4291 33.355C67.3702 33.451 67.3378 33.5609 67.3354 33.6736C67.3329 33.7862 67.3604 33.8974 67.415 33.9959V33.9939Z" fill="#E0E0E0"/>
<path d="M77.6959 39.7339C77.6968 39.9166 77.6342 40.094 77.5189 40.2357C77.4036 40.3774 77.2427 40.4747 77.0636 40.511C76.8846 40.5473 76.6984 40.5203 76.5371 40.4347C76.3757 40.349 76.249 40.21 76.1787 40.0414C76.1084 39.8727 76.0988 39.6849 76.1515 39.51C76.2042 39.3351 76.316 39.1839 76.4679 39.0822C76.6197 38.9805 76.802 38.9347 76.9839 38.9525C77.1657 38.9703 77.3357 39.0507 77.4649 39.1799C77.6123 39.3267 77.6953 39.5259 77.6959 39.7339Z" fill="#263238"/>
<path d="M96.642 46.822H71.542V48.046H96.642V46.822Z" fill="#455A64"/>
<path d="M88.9121 47.4359L96.5471 61.2459H100.198L100.993 59.6659L101.724 58.0029L96.6421 48.0459L88.9121 47.4359Z" fill="#455A64"/>
<path d="M102.179 23.7579C100.812 24.3152 99.6045 25.2026 98.6645 26.3408C97.7244 27.4789 97.0811 28.8323 96.792 30.2799L101.473 32.6139L102.179 23.7579Z" fill="#0097C2"/>
<path d="M102.179 23.758C102.179 23.758 99.0791 30.709 99.1961 34.506C99.3925 36.1142 99.6952 37.7077 100.102 39.276L101.714 47.817C101.714 47.817 114.056 46.147 114.329 46.147C114.602 46.147 113.916 39.135 113.916 39.135L115.929 25.662C115.929 25.662 115.007 23.827 110.841 23.191C108.342 22.801 102.179 23.758 102.179 23.758Z" fill="#0097C2"/>
<path d="M101.008 27.793C101.037 27.809 100.713 28.327 100.322 29.224C100.095 29.7489 99.9037 30.2885 99.749 30.839C99.5644 31.5137 99.4307 32.2013 99.349 32.896C99.2758 33.5934 99.2537 34.2953 99.283 34.996C99.3111 35.5665 99.3779 36.1345 99.483 36.696C99.661 37.65 99.864 38.235 99.833 38.245C99.766 38.1176 99.7127 37.9835 99.674 37.845C99.6173 37.6876 99.5683 37.5276 99.527 37.365C99.476 37.174 99.41 36.965 99.365 36.729C99.2458 36.163 99.1673 35.5892 99.13 35.012C99.0919 34.3037 99.11 33.5934 99.184 32.888C99.2688 32.1834 99.4102 31.4868 99.607 30.805C99.7699 30.2504 99.9752 29.7091 100.221 29.186C100.31 28.9825 100.411 28.7839 100.521 28.591C100.597 28.4412 100.68 28.2956 100.772 28.155C100.838 28.0268 100.917 27.9055 101.008 27.793Z" fill="#263238"/>
<path d="M103.679 23.6939L103.857 21.7859C103.877 21.5869 103.969 21.4021 104.117 21.2672C104.265 21.1323 104.457 21.0567 104.657 21.0549L110.747 20.9629C110.932 20.9608 111.11 21.0289 111.247 21.1535C111.383 21.2781 111.467 21.4498 111.482 21.6339L111.637 23.6909C111.127 24.7714 110.265 25.6461 109.192 26.1709C107.734 26.7437 106.185 27.0486 104.619 27.0709L103.679 23.6939Z" fill="#0097C2"/>
<path d="M105.273 21.071C105.292 21.071 105.203 21.195 105.165 21.389C105.13 21.6699 105.13 21.9541 105.165 22.235C105.218 22.6446 105.218 23.0593 105.165 23.469C105.055 23.0703 104.999 22.6586 104.999 22.245C104.957 21.9505 104.97 21.6508 105.037 21.361C105.142 21.141 105.263 21.052 105.273 21.071Z" fill="#263238"/>
<path d="M106.732 23.4299C106.625 23.0391 106.573 22.6351 106.579 22.2299C106.555 21.9441 106.555 21.6567 106.579 21.3709C106.611 21.1419 106.703 21.0239 106.722 21.0529C106.741 21.0819 106.694 21.1869 106.697 21.3959C106.7 21.6049 106.732 21.9049 106.732 22.2229C106.785 22.6212 106.785 23.0247 106.732 23.4229V23.4299Z" fill="#263238"/>
<path d="M108.561 23.3789C108.429 23.0079 108.349 22.6206 108.323 22.2279C108.244 21.8389 108.219 21.4407 108.25 21.0449C108.382 21.4191 108.463 21.8098 108.488 22.2059C108.565 22.5918 108.59 22.9864 108.561 23.3789Z" fill="#263238"/>
<path d="M110.137 23.5C109.992 23.0912 109.915 22.6616 109.908 22.228C109.847 21.7958 109.858 21.3566 109.94 20.928C110.023 21.347 110.068 21.7728 110.074 22.2C110.136 22.6304 110.157 23.0656 110.137 23.5Z" fill="#263238"/>
<g opacity="0.3">
<path opacity="0.3" d="M111.342 30.786C111.063 33.4211 111.292 36.0853 112.017 38.634L115.572 32.761L111.342 30.786Z" fill="black"/>
</g>
<path d="M115.598 25.2209L115.618 25.2399C116.626 26.2983 117.363 27.5844 117.767 28.9889L118.422 31.9749L111.422 33.0559C111.037 31.7895 110.946 30.452 111.155 29.1449C111.503 26.8929 115.598 25.2209 115.598 25.2209Z" fill="#0097C2"/>
<path d="M118.422 31.975C118.377 31.9909 118.33 32.0026 118.282 32.01L117.882 32.083L116.382 32.328L111.313 33.098H111.224V33.006C111.208 32.583 111.196 32.144 111.186 31.693C111.17 30.52 111.186 29.393 111.256 28.376C111.305 27.4613 111.585 26.574 112.07 25.797C112.395 25.275 112.841 24.8387 113.37 24.525C113.513 24.44 113.664 24.3696 113.821 24.315C113.874 24.2909 113.93 24.2747 113.987 24.267C113.783 24.355 113.587 24.4614 113.402 24.585C112.897 24.9081 112.474 25.3434 112.165 25.857C111.704 26.6288 111.442 27.5029 111.402 28.401C111.328 29.412 111.332 30.532 111.351 31.701C111.351 32.146 111.373 32.588 111.382 33.008L111.29 32.929L116.378 32.214L117.878 32.02L118.285 31.972C118.328 31.9665 118.371 31.9665 118.413 31.972L118.422 31.975Z" fill="#263238"/>
<path d="M103.642 27.589C103.286 27.3814 102.959 27.1279 102.669 26.835C102.342 26.583 102.051 26.2876 101.804 25.957C102.487 26.4161 103.105 26.9647 103.642 27.588V27.589Z" fill="#FAFAFA"/>
<path d="M102.7 31.2689C102.451 31.5252 102.162 31.7399 101.845 31.9049C101.554 32.116 101.232 32.2813 100.891 32.3949C101.43 31.9313 102.037 31.5539 102.691 31.2759L102.7 31.2689Z" fill="#FAFAFA"/>
<path d="M106.602 32.1749C106.545 31.7231 106.545 31.2658 106.602 30.8139C106.604 30.3597 106.66 29.9073 106.767 29.4659C106.823 29.9169 106.823 30.373 106.767 30.8239C106.766 31.2792 106.71 31.7327 106.602 32.1749Z" fill="#FAFAFA"/>
<path d="M110.396 35.852C110.079 35.5551 109.784 35.2363 109.512 34.898C109.199 34.6001 108.907 34.2813 108.637 33.944C109.02 34.1646 109.359 34.4546 109.637 34.799C109.95 35.1026 110.207 35.459 110.396 35.852Z" fill="#FAFAFA"/>
<path d="M110.93 28.162C110.657 28.4459 110.345 28.6899 110.004 28.887C109.692 29.1273 109.349 29.3241 108.984 29.472C109.258 29.1893 109.57 28.9469 109.912 28.752C110.224 28.5128 110.566 28.3161 110.93 28.167V28.162Z" fill="#FAFAFA"/>
<path d="M107.501 25.3789C107.199 25.6725 106.859 25.9238 106.49 26.1259C106.152 26.3769 105.782 26.5823 105.39 26.7369C105.692 26.443 106.032 26.1907 106.401 25.9869C106.741 25.7396 107.11 25.5357 107.501 25.3799V25.3789Z" fill="#FAFAFA"/>
<path d="M110.592 26.4859C110.384 26.1776 110.221 25.8408 110.109 25.4859C109.953 25.1489 109.846 24.7913 109.791 24.424C110.002 24.7308 110.165 25.068 110.274 25.424C110.433 25.7589 110.54 26.1159 110.592 26.483V26.4859Z" fill="#FAFAFA"/>
<path d="M114.842 27.882C114.335 27.5293 113.895 27.0891 113.542 26.582C113.811 26.7363 114.051 26.9367 114.251 27.174C114.49 27.3724 114.692 27.6126 114.845 27.883L114.842 27.882Z" fill="#FAFAFA"/>
<path d="M113.092 30.983C112.991 30.6689 112.945 30.3398 112.955 30.01C112.908 29.6844 112.918 29.3532 112.984 29.031C113.13 29.6712 113.167 30.3316 113.092 30.984V30.983Z" fill="#FAFAFA"/>
<path d="M116.625 30.34C116.255 30.399 115.877 30.3861 115.512 30.302C115.139 30.2703 114.775 30.1685 114.44 30.002C114.81 30.0058 115.179 30.0508 115.54 30.136C115.908 30.1653 116.272 30.2336 116.625 30.34Z" fill="#FAFAFA"/>
<path d="M102.379 36.752C102.12 36.3928 101.906 36.0028 101.743 35.591C101.53 35.2023 101.365 34.7889 101.253 34.36C101.513 34.7189 101.726 35.109 101.889 35.521C102.103 35.9094 102.267 36.3229 102.379 36.752Z" fill="#FAFAFA"/>
<path d="M107.05 41.7659C106.751 41.4945 106.491 41.1832 106.277 40.8409C106.022 40.5284 105.808 40.1842 105.641 39.8169C106.202 40.3953 106.677 41.0518 107.05 41.7659Z" fill="#FAFAFA"/>
<path d="M110.91 39.661C110.583 39.8758 110.228 40.044 109.855 40.161C109.501 40.3277 109.125 40.4422 108.739 40.501C109.419 40.1198 110.15 39.8383 110.91 39.665V39.661Z" fill="#FAFAFA"/>
<path d="M101.399 43.7249C101.552 43.125 101.809 42.5566 102.159 42.0459C102.106 42.3541 101.998 42.6504 101.841 42.9209C101.742 43.213 101.593 43.4852 101.399 43.7249Z" fill="#FAFAFA"/>
<path d="M98.4059 29.352C98.2221 29.1191 98.1114 28.8368 98.0879 28.541C98.013 28.2544 98.0262 27.9519 98.1259 27.673C98.1913 27.949 98.2338 28.23 98.2529 28.513C98.3266 28.7884 98.3777 29.0693 98.4059 29.353V29.352Z" fill="#FAFAFA"/>
<path d="M103.721 40.507C103.382 40.4178 103.059 40.2728 102.767 40.078C102.45 39.9344 102.158 39.7413 101.902 39.506C102.241 39.5968 102.563 39.7417 102.856 39.935C103.171 40.0812 103.463 40.274 103.721 40.507Z" fill="#FAFAFA"/>
<path d="M106.789 35.209C106.267 35.8335 105.662 36.3824 104.989 36.84C105.23 36.5107 105.514 36.2154 105.834 35.962C106.117 35.6688 106.437 35.4151 106.788 35.208L106.789 35.209Z" fill="#FAFAFA"/>
<g opacity="0.3">
<path opacity="0.3" d="M104.909 35.11C105.064 36.2184 105.558 37.2515 106.325 38.067C106.713 38.4674 107.205 38.7511 107.745 38.886C108.286 39.0208 108.854 39.0014 109.384 38.83C109.497 38.7986 109.6 38.7407 109.686 38.661C109.772 38.5813 109.837 38.4822 109.877 38.372C109.894 38.236 109.864 38.0983 109.791 37.9822C109.718 37.8662 109.607 37.7792 109.477 37.736C109.219 37.653 108.948 37.6145 108.677 37.622C107.906 37.5713 107.16 37.3242 106.511 36.9042C105.862 36.4841 105.331 35.905 104.969 35.222" fill="black"/>
</g>
<path d="M109.042 37.673C108.973 37.6934 108.901 37.7062 108.829 37.7109C108.632 37.7308 108.434 37.7308 108.237 37.7109C107.945 37.6778 107.658 37.6107 107.382 37.5109C106.7 37.2657 106.095 36.8457 105.626 36.2929C105.436 36.069 105.273 35.8237 105.14 35.562C105.046 35.3876 104.973 35.203 104.921 35.0119C104.895 34.9438 104.881 34.8718 104.879 34.799C104.911 34.799 104.997 35.0849 105.242 35.5049C105.385 35.7501 105.553 35.9802 105.742 36.1919C105.976 36.4496 106.237 36.681 106.521 36.882C106.808 37.0766 107.115 37.2399 107.437 37.3689C107.701 37.4727 107.975 37.5494 108.254 37.5979C108.735 37.6639 109.042 37.641 109.042 37.673Z" fill="#263238"/>
<path d="M91.5419 42.799L96.1419 42.262L99.3879 44.389L111.788 41.413L112.081 32.913L117.592 32.188V42.478C117.56 43.7266 117.035 44.9118 116.132 45.774C115.228 46.6362 114.02 47.1051 112.771 47.078L94.5939 46.572L93.8209 45.027L89.9209 44.909L91.5419 42.799Z" fill="#FFAAAA"/>
<path d="M111.642 41.397C111.566 41.4274 111.487 41.4518 111.407 41.47L110.733 41.645L108.242 42.262L100.012 44.256L99.2459 44.44H99.1889L95.9449 42.306H95.9899L91.3819 42.84L91.4139 42.821L90.1929 44.37L89.8749 44.777C89.8395 44.8259 89.799 44.8708 89.7539 44.911C89.7839 44.8588 89.8173 44.8087 89.8539 44.761L90.1719 44.341L91.3549 42.77H91.3739L95.9739 42.194H96.0179L99.2679 44.318H99.2109L99.9769 44.134L108.216 42.182L110.716 41.606L111.397 41.456C111.477 41.4297 111.559 41.41 111.642 41.397Z" fill="#EB996E"/>
<path d="M94.0539 44.119C93.46 44.1885 92.8615 44.2119 92.2639 44.189H91.9419L91.9869 44.173C91.6271 44.5036 91.2386 44.8014 90.8259 45.063C91.1536 44.7007 91.5108 44.3662 91.8939 44.063L91.9129 44.044H92.2659C92.863 44.0199 93.461 44.045 94.0539 44.119Z" fill="#EB996E"/>
<path d="M113.932 42.787C113.695 42.413 113.387 42.089 113.026 41.833C112.642 41.6163 112.22 41.478 111.782 41.426C111.91 41.3815 112.048 41.3705 112.182 41.394C112.507 41.4283 112.819 41.5371 113.095 41.7119C113.371 41.8868 113.602 42.1229 113.772 42.402C113.858 42.514 113.913 42.6469 113.931 42.787H113.932Z" fill="#EB996E"/>
<path d="M34.4041 110.717H13.6421V113.569H34.4041V110.717Z" fill="#263238"/>
<path d="M34.442 113.607H13.603V110.682H34.442V113.607ZM13.677 113.534H34.377V110.752H13.677V113.534Z" fill="#263238"/>
<path d="M15.5649 112.622L18.5509 127.367H29.6109L32.5019 113.567L15.5649 112.622Z" fill="#263238"/>
<path d="M15.5649 125.971L17.1579 128.165H30.5999L32.4999 125.971H15.5649Z" fill="#455A64"/>
<path d="M23.2419 113.052C23.2009 113.052 23.1499 106.222 23.1239 97.7879C23.0979 89.3539 23.1239 82.5239 23.1559 82.5239C23.1879 82.5239 23.2479 89.3539 23.2739 97.7879C23.2999 106.222 23.2829 113.052 23.2419 113.052Z" fill="#263238"/>
<path d="M27.869 95.9519C27.8553 96.0066 27.8362 96.0599 27.812 96.1109C27.764 96.2289 27.701 96.3749 27.628 96.5529C27.587 96.6529 27.542 96.7529 27.491 96.8709C27.44 96.9889 27.402 97.1219 27.354 97.2589L27.192 97.7039C27.138 97.8629 27.092 98.0219 27.039 98.2129C26.7922 99.0479 26.5978 99.8976 26.457 100.757C26.2974 101.811 26.1913 102.872 26.139 103.936C26.0637 105.876 26.1192 107.819 26.305 109.752C26.372 110.496 26.439 111.094 26.489 111.507C26.508 111.701 26.527 111.86 26.54 111.984C26.5443 112.04 26.5443 112.097 26.54 112.153C26.5201 112.1 26.5073 112.044 26.502 111.988C26.48 111.864 26.454 111.708 26.422 111.517C26.355 111.104 26.269 110.506 26.19 109.765C25.9736 107.831 25.9044 105.883 25.983 103.939C26.03 102.867 26.1362 101.799 26.301 100.739C26.4481 99.8778 26.6543 99.0278 26.918 98.1949C26.975 98.0169 27.018 97.8459 27.08 97.6899L27.252 97.2449L27.405 96.8599C27.456 96.7419 27.505 96.6409 27.551 96.5419L27.764 96.1099C27.7891 96.054 27.8229 96.0024 27.864 95.9569L27.869 95.9519Z" fill="#263238"/>
<path d="M27.3421 90.432C27.3244 90.5086 27.302 90.5841 27.2751 90.658C27.2211 90.814 27.1481 91.027 27.0591 91.294L26.8961 91.752C26.8451 91.924 26.7881 92.108 26.7271 92.305C26.6061 92.699 26.4661 93.148 26.3421 93.653L26.1321 94.445C26.0681 94.722 26.0051 95.011 25.9381 95.307C25.7921 95.902 25.6871 96.547 25.5531 97.215C25.3241 98.569 25.1241 100.076 24.9841 101.652C24.8441 103.228 24.7961 104.752 24.7771 106.126C24.7581 107.5 24.7771 108.743 24.8471 109.783C24.8631 110.304 24.8981 110.772 24.9231 111.183C24.9481 111.594 24.9741 111.953 24.9991 112.242C25.0241 112.531 25.0371 112.742 25.0501 112.913C25.0543 112.99 25.0543 113.068 25.0501 113.145C25.0297 113.07 25.017 112.993 25.0121 112.916C24.9931 112.748 24.9681 112.528 24.9331 112.248C24.8981 111.968 24.8631 111.612 24.8331 111.189C24.8031 110.766 24.7601 110.309 24.7331 109.789C24.6631 108.746 24.6331 107.506 24.6331 106.126C24.6331 104.746 24.6971 103.226 24.8331 101.642C24.9691 100.058 25.1801 98.551 25.4151 97.19C25.5521 96.513 25.6631 95.867 25.8151 95.282C25.8851 94.982 25.9551 94.694 26.0151 94.417L26.2341 93.628C26.3641 93.122 26.5141 92.674 26.6441 92.28C26.7081 92.08 26.7681 91.902 26.8221 91.73C26.8761 91.558 26.9401 91.412 26.9941 91.275L27.2361 90.639C27.2615 90.5665 27.2951 90.4971 27.3361 90.432H27.3421Z" fill="#263238"/>
<path d="M21.9291 114.259C21.9257 114.233 21.9257 114.206 21.9291 114.18C21.9309 114.101 21.9245 114.022 21.9101 113.945C21.8941 113.728 21.8751 113.426 21.8501 113.045C21.7991 112.245 21.7291 111.115 21.6401 109.716C21.4621 106.908 21.2011 103.038 20.7271 98.7609C20.4851 96.6239 20.2061 94.5989 19.9131 92.7609C19.7601 91.8449 19.6201 90.9739 19.4581 90.1609C19.2961 89.3479 19.1401 88.5929 19.0131 87.9029C18.8861 87.2129 18.7241 86.5959 18.6001 86.0519C18.4761 85.5079 18.3651 85.0379 18.2821 84.6519C18.1991 84.2659 18.1201 83.9839 18.0661 83.7709C18.0471 83.6789 18.0281 83.6029 18.0151 83.5419C18.0103 83.5158 18.0103 83.489 18.0151 83.4629C18.0283 83.4867 18.0381 83.5123 18.0441 83.5389L18.1081 83.7649C18.1681 83.9749 18.2481 84.2649 18.3531 84.6399C18.4581 85.0149 18.5821 85.4829 18.7121 86.0299C18.8421 86.5769 19.0011 87.1909 19.1451 87.8809C19.2891 88.5709 19.4631 89.3219 19.6091 90.1359C19.7551 90.9499 19.9271 91.8209 20.0801 92.7359C20.3801 94.5739 20.6621 96.6029 20.9041 98.7359C21.3781 103.01 21.6231 106.893 21.7751 109.704C21.8511 111.112 21.9051 112.248 21.9371 113.036C21.9371 113.421 21.9621 113.723 21.9691 113.943V114.178C21.9605 114.206 21.9477 114.233 21.9311 114.257L21.9291 114.259Z" fill="#263238"/>
<path d="M23.0731 85.8269C22.9876 85.3477 22.7361 84.9139 22.3627 84.6016C21.9893 84.2893 21.5179 84.1184 21.0311 84.1189C20.5444 84.1403 20.0689 84.2723 19.6408 84.5048C19.2127 84.7374 18.8431 85.0643 18.5601 85.4609C18.0002 86.2593 17.5955 87.1559 17.3671 88.1039C16.6595 90.3759 16.411 92.766 16.6361 95.1349C16.8697 97.5168 17.9007 99.7501 19.5621 101.473C19.6802 101.626 19.8337 101.747 20.0093 101.828C20.1849 101.908 20.3773 101.944 20.5701 101.934C20.7714 101.875 20.9543 101.766 21.1011 101.616C22.7569 100.1 24.0693 98.247 24.9501 96.182C25.8309 94.1169 26.2599 91.8874 26.2081 89.6429C26.238 88.7429 26.0178 87.8523 25.5721 87.0699C25.0791 86.3259 23.9181 85.5309 23.0721 85.8299" fill="#0097C2"/>
<path d="M15.8141 78.0679L14.4421 80.5519C14.4101 80.6089 14.3691 80.6759 14.3021 80.6789C14.2351 80.6819 14.1751 80.6189 14.1371 80.5579L10.5181 75.0179L11.3511 74.5439L15.8141 78.0679Z" fill="#0097C2"/>
<g opacity="0.2">
<path opacity="0.2" d="M15.8141 78.0679L14.4421 80.5519C14.4101 80.6089 14.3691 80.6759 14.3021 80.6789C14.2351 80.6819 14.1751 80.6189 14.1371 80.5579L10.5181 75.0179L11.3511 74.5439L15.8141 78.0679Z" fill="black"/>
</g>
<path d="M23.1559 82.536L10.8119 75.252C10.6704 75.198 10.556 75.0901 10.4939 74.952C10.4459 74.771 10.5829 74.593 10.7129 74.452C11.5625 73.5715 12.5917 72.8842 13.7306 72.4369C14.8694 71.9897 16.0912 71.7929 17.3129 71.86C18.5339 71.9478 19.7152 72.3315 20.7546 72.9781C21.7941 73.6247 22.6604 74.5146 23.2789 75.571C23.8861 76.6363 24.1939 77.8459 24.1698 79.0719C24.1457 80.2978 23.7905 81.4944 23.1419 82.535" fill="#0097C2"/>
<path d="M12.604 72.926C12.6567 72.9114 12.7113 72.905 12.766 72.907C12.866 72.907 13.03 72.882 13.233 72.885C13.8062 72.8774 14.3789 72.9222 14.944 73.019C15.7857 73.1633 16.6061 73.4122 17.386 73.76C18.7322 74.3657 19.9278 75.2617 20.8872 76.3837C21.8465 77.5057 22.5458 78.826 22.935 80.25C23.0943 80.8026 23.2008 81.3692 23.253 81.942C23.278 82.142 23.272 82.301 23.278 82.409C23.2835 82.4628 23.2835 82.5171 23.278 82.571C23.278 82.571 23.249 82.348 23.198 81.935C23.1275 81.3699 23.0115 80.8114 22.851 80.265C22.3333 78.4523 21.3178 76.821 19.9198 75.5563C18.5218 74.2916 16.7973 73.4441 14.942 73.11C14.3828 73.0038 13.816 72.9433 13.247 72.929C13.0328 72.94 12.8181 72.939 12.604 72.926Z" fill="#263238"/>
<path d="M21.4839 77.508C21.2849 77.6292 21.0711 77.7243 20.8479 77.791C20.4539 77.947 19.8939 78.144 19.2899 78.341C18.6859 78.538 18.1129 78.691 17.6999 78.793C17.4805 78.8599 17.2545 78.9025 17.0259 78.92C17.2293 78.8216 17.4425 78.7448 17.6619 78.691L19.2329 78.198L20.8009 77.692C21.0222 77.6078 21.2513 77.5458 21.4849 77.507L21.4839 77.508Z" fill="#263238"/>
<path d="M19.5419 72.287C19.6524 72.7373 19.7015 73.2005 19.6879 73.664C19.7244 74.1263 19.6988 74.5914 19.6119 75.047C19.5523 74.5895 19.5289 74.1281 19.5419 73.667C19.5056 73.2077 19.5056 72.7463 19.5419 72.287Z" fill="#263238"/>
<path d="M10.697 75.1139C10.9869 74.9812 11.2881 74.8748 11.597 74.7959C12.157 74.6209 12.939 74.4019 13.823 74.1959C14.707 73.9899 15.489 73.8269 16.049 73.7249C16.3627 73.6549 16.6819 73.6124 17.003 73.5979C16.7012 73.6949 16.3932 73.7714 16.081 73.8269C15.509 73.9539 14.72 74.1449 13.855 74.3419C12.99 74.5389 12.205 74.7519 11.629 74.8989C11.3235 74.9912 11.0121 75.063 10.697 75.1139Z" fill="#263238"/>
<path d="M17.4639 83.531C16.4422 82.8076 15.1914 82.4829 13.9469 82.618C12.6142 82.7029 11.3091 83.0363 10.0989 83.601C7.97362 84.4468 6.13897 85.8903 4.81688 87.757C4.16836 88.6949 3.76094 89.7782 3.63066 90.911C3.50037 92.0438 3.65122 93.1913 4.06988 94.252C4.14323 94.4688 4.2938 94.651 4.49288 94.764C4.72526 94.8293 4.97327 94.8101 5.19288 94.71C7.58521 94.0128 9.90542 93.0886 12.1219 91.95C14.3465 90.7989 16.1933 89.0324 17.4419 86.861C17.7407 86.3483 17.9332 85.7806 18.0079 85.192C18.0397 84.8941 18.0077 84.5928 17.9139 84.3083C17.8201 84.0238 17.6667 83.7625 17.4639 83.542" fill="#0097C2"/>
<path d="M17.483 83.283C17.4302 83.3132 17.3737 83.3367 17.315 83.353L16.815 83.525L16.456 83.643C16.326 83.691 16.186 83.743 16.036 83.808C15.736 83.929 15.4 84.05 15.022 84.228L14.443 84.492C14.243 84.584 14.043 84.699 13.826 84.81C13.397 85.02 12.964 85.29 12.5 85.564C10.5183 86.7933 8.7549 88.3438 7.28203 90.152C6.96403 90.575 6.63003 90.972 6.36603 91.373C6.22903 91.573 6.09303 91.755 5.97203 91.942L5.65403 92.483C5.43103 92.823 5.26603 93.154 5.10703 93.437C5.03103 93.577 4.95403 93.707 4.89103 93.831C4.82803 93.955 4.77703 94.066 4.72903 94.171L4.49403 94.642C4.47184 94.6988 4.44189 94.7523 4.40503 94.801C4.42063 94.7417 4.44207 94.684 4.46903 94.629L4.67603 94.146C4.72403 94.046 4.77603 93.927 4.82903 93.799C4.88203 93.671 4.96303 93.541 5.03603 93.399C5.18903 93.11 5.35403 92.763 5.56403 92.429C5.67203 92.254 5.78003 92.07 5.88203 91.879C5.98403 91.688 6.13603 91.504 6.27003 91.303C6.53103 90.896 6.85203 90.495 7.17903 90.066C7.92033 89.1549 8.73289 88.3042 9.60903 87.522C10.4947 86.7525 11.4411 86.0559 12.439 85.439C12.906 85.166 13.345 84.898 13.778 84.692C13.994 84.584 14.198 84.473 14.414 84.374L15.002 84.12C15.374 83.945 15.724 83.831 16.029 83.72C16.182 83.666 16.322 83.612 16.455 83.567L16.818 83.459L17.324 83.316C17.3772 83.3023 17.4314 83.2926 17.486 83.287L17.483 83.283Z" fill="#263238"/>
<path d="M9.18996 87.7729C8.34455 88.095 7.48268 88.3721 6.60796 88.6029C5.74623 88.8831 4.86912 89.1135 3.98096 89.2929C4.82636 88.9709 5.68824 88.6938 6.56296 88.4629C7.42521 88.1846 8.30222 87.9543 9.18996 87.7729Z" fill="#263238"/>
<path d="M9.08198 93.459C9.03895 93.1946 9.01988 92.9268 9.02498 92.659V90.712C9.02498 89.955 9.08898 89.265 9.12498 88.769C9.13097 88.4996 9.16447 88.2316 9.22498 87.969C9.24639 88.2379 9.24639 88.5081 9.22498 88.777C9.20598 89.321 9.18698 89.982 9.16498 90.717C9.14298 91.452 9.12998 92.117 9.11398 92.657C9.12566 92.9243 9.11294 93.192 9.07598 93.457L9.08198 93.459Z" fill="#263238"/>
<path d="M13.9661 90.9849C13.9251 90.9849 13.7941 89.5849 13.6771 87.8619C13.5601 86.1389 13.4931 84.7329 13.5341 84.7329C13.5751 84.7329 13.7031 86.1259 13.8231 87.8529C13.9431 89.5799 14.0071 90.9819 13.9661 90.9849Z" fill="#263238"/>
<path d="M7.88794 84.5959C8.16219 84.5614 8.4391 84.553 8.71494 84.5709C9.22394 84.5709 9.92994 84.5899 10.7089 84.6159C11.4879 84.6419 12.1909 84.6729 12.6999 84.7019C12.9763 84.7053 13.2519 84.7318 13.5239 84.7809C13.2497 84.8154 12.9728 84.8238 12.6969 84.8059C12.1879 84.8059 11.4819 84.7899 10.7029 84.7609C9.92394 84.7319 9.22094 84.7039 8.70894 84.6749C8.43383 84.6715 8.15951 84.6448 7.88894 84.5949L7.88794 84.5959Z" fill="#263238"/>
<path d="M20.094 102.134C20.0799 102.078 20.0735 102.02 20.075 101.962C20.0772 101.801 20.0699 101.639 20.053 101.479C20.034 101.056 20.031 100.449 20.053 99.692C20.075 98.935 20.117 98.041 20.206 97.049C20.295 96.057 20.441 94.966 20.642 93.831C20.843 92.696 21.09 91.631 21.342 90.651C21.594 89.671 21.867 88.829 22.115 88.107C22.363 87.385 22.573 86.835 22.751 86.434C22.827 86.249 22.888 86.116 22.939 85.986C22.9584 85.9328 22.9829 85.8816 23.012 85.833C23.0049 85.8893 22.9887 85.944 22.964 85.995L22.783 86.462C22.637 86.856 22.436 87.416 22.204 88.147C21.972 88.878 21.718 89.737 21.466 90.691C21.214 91.645 20.979 92.72 20.776 93.852C20.573 94.984 20.436 96.078 20.334 97.052C20.232 98.026 20.175 98.934 20.15 99.685C20.125 100.436 20.109 101.046 20.109 101.469V101.952C20.1089 102.012 20.1045 102.071 20.096 102.13L20.094 102.134Z" fill="#263238"/>
<path d="M20.742 93.7109C20.5977 93.9085 20.4324 94.0899 20.249 94.2519C19.931 94.5699 19.476 94.9959 18.961 95.4519C18.446 95.9079 17.961 96.2979 17.6 96.5749C17.4155 96.7347 17.2144 96.8742 17 96.9909C17.1617 96.8077 17.3405 96.6403 17.534 96.4909L18.86 95.3399L20.176 94.1759C20.3485 94.0037 20.537 93.8484 20.739 93.7119L20.742 93.7109Z" fill="#263238"/>
<path d="M24.6509 96.8519C24.4574 96.6242 24.2819 96.3818 24.1259 96.1269L22.9079 94.3519L21.6609 92.5899C21.4758 92.3549 21.3086 92.1062 21.1609 91.8459C21.3761 92.0539 21.571 92.2819 21.7429 92.5269C22.0859 92.9629 22.5429 93.5729 23.0149 94.2699C23.4869 94.9669 23.9149 95.6059 24.2009 96.0759C24.3743 96.322 24.5243 96.5839 24.6489 96.8579L24.6509 96.8519Z" fill="#263238"/>
<path d="M22.603 86.952C22.625 86.987 21.331 87.862 19.703 88.904C18.075 89.946 16.746 90.767 16.723 90.732C16.7 90.697 17.995 89.822 19.623 88.78C21.251 87.738 22.584 86.924 22.603 86.952Z" fill="#263238"/>
<path d="M26.2781 90.9149C25.5928 90.3443 24.9379 89.7381 24.3161 89.0989C23.6614 88.4977 23.0404 87.8607 22.4561 87.1909C23.1437 87.7599 23.7997 88.3661 24.4211 89.0069C25.0762 89.6067 25.6963 90.2437 26.2781 90.9149Z" fill="#263238"/>
<path d="M27.1851 90.829L28.2981 90.737C29.0894 90.6722 29.8573 90.4368 30.5491 90.047C30.8875 89.8496 31.2379 89.6733 31.5981 89.519C33.0261 89.1041 34.5124 88.9258 35.9981 88.991C38.4274 88.8693 40.8077 88.2616 42.9981 87.204C43.1296 87.1459 43.2405 87.0493 43.3161 86.927C43.5451 86.51 43.1161 86.138 42.7531 85.913C40.9295 84.6678 38.9365 83.6911 36.8351 83.013C35.7812 82.6805 34.6684 82.5774 33.5713 82.7107C32.4743 82.8441 31.4186 83.2107 30.4751 83.786C28.3441 85.255 27.5651 88.27 27.2061 90.833" fill="#0097C2"/>
<path d="M43.3199 86.781C43.2557 86.7547 43.193 86.725 43.1319 86.692L42.6039 86.415C42.1459 86.173 41.4879 85.815 40.6509 85.415C39.6825 84.9369 38.6727 84.5476 37.6339 84.252C36.3634 83.8868 35.0328 83.7787 33.7199 83.934C32.405 84.0802 31.1631 84.6138 30.1519 85.467C29.3622 86.2007 28.7303 87.0878 28.2949 88.074C27.9909 88.737 27.7212 89.4152 27.4869 90.106L27.2869 90.669C27.2673 90.7358 27.2419 90.8007 27.2109 90.863C27.2204 90.7949 27.2365 90.7279 27.2589 90.663C27.3039 90.52 27.3589 90.329 27.4309 90.094C27.6432 89.3994 27.8959 88.7179 28.1879 88.053C28.6163 87.0436 29.2509 86.1348 30.0509 85.385C31.0764 84.5017 32.3441 83.9476 33.6889 83.795C35.0199 83.6341 36.3696 83.7422 37.6579 84.113C38.703 84.4191 39.7176 84.8208 40.6889 85.313C41.5189 85.726 42.1709 86.095 42.6219 86.353L43.1369 86.653C43.2031 86.6877 43.2646 86.7308 43.3199 86.781Z" fill="#263238"/>
<path d="M40.642 88.2279C40.62 88.2599 39.16 87.3179 37.386 86.1229C35.612 84.9279 34.186 83.9289 34.206 83.8969C34.226 83.8649 35.685 84.8069 37.459 86.0019C39.233 87.1969 40.668 88.1929 40.642 88.2279Z" fill="#263238"/>
<path d="M39.247 83.752C38.5042 83.9855 37.7201 84.0581 36.947 83.965C37.3249 83.8861 37.7091 83.8413 38.095 83.831C38.476 83.7714 38.8615 83.7449 39.247 83.752Z" fill="#263238"/>
<path d="M32.7119 82.583C32.434 83.2412 32.0694 83.8593 31.6279 84.421C31.7418 84.0824 31.9023 83.7613 32.1049 83.467C32.2643 83.145 32.4687 82.8474 32.7119 82.583Z" fill="#263238"/>
<path d="M34.0159 89.0869C33.7699 88.9844 33.5353 88.8563 33.3159 88.7049C32.8929 88.4509 32.3239 88.0689 31.7259 87.6329C31.1279 87.1969 30.5839 86.7739 30.1969 86.4689C29.9812 86.3154 29.7803 86.1419 29.5969 85.9509C29.8333 86.0741 30.057 86.2201 30.2649 86.3869L31.8199 87.5159C32.4199 87.9549 32.9809 88.3399 33.3879 88.6159C33.6121 88.7529 33.8239 88.9091 34.0209 89.0829L34.0159 89.0869Z" fill="#263238"/>
<path d="M28.8229 95.5639C28.2481 95.5009 27.6702 95.6528 27.2005 95.9902C26.7309 96.3277 26.4026 96.827 26.2789 97.3919C26.1575 98.4948 26.3878 99.6078 26.9369 100.572C27.9498 102.796 29.4523 104.762 31.3319 106.324C33.2279 107.879 35.5934 108.747 38.045 108.789C37.597 106.703 38.1629 104.521 37.9149 102.4C37.6934 100.532 36.8446 98.7939 35.5073 97.4706C34.17 96.1473 32.4234 95.3168 30.5529 95.1149C29.8759 95.0419 29.0899 94.9369 28.8199 95.5629" fill="#0097C2"/>
<path d="M38.0421 108.79C37.9887 108.772 37.9374 108.749 37.8891 108.72C37.7491 108.641 37.6154 108.552 37.4891 108.453C37.0442 108.066 36.6866 107.589 36.4401 107.053C36.2721 106.735 36.0811 106.366 35.8961 105.969C35.7111 105.572 35.5271 105.152 35.3241 104.697C35.1209 104.231 34.8871 103.78 34.6241 103.345C34.341 102.882 34.022 102.442 33.6701 102.029C32.9451 101.177 32.1631 100.439 31.4851 99.729C30.8729 99.1118 30.3155 98.4426 29.8191 97.729C29.4866 97.245 29.2133 96.723 29.0051 96.174C28.9381 95.98 28.8871 95.824 28.8621 95.719C28.8444 95.6666 28.8337 95.6122 28.8301 95.557C28.8301 95.557 28.9031 95.773 29.0591 96.157C29.2859 96.6915 29.5695 97.2001 29.9051 97.674C30.4106 98.3724 30.9721 99.0286 31.5841 99.636C32.2651 100.336 33.0501 101.074 33.7841 101.936C34.1442 102.355 34.4705 102.801 34.7601 103.271C35.0222 103.713 35.256 104.171 35.4601 104.642L36.0201 105.914C36.1981 106.308 36.3821 106.671 36.5481 106.998C36.7803 107.53 37.1177 108.009 37.5401 108.407C37.8511 108.675 38.0611 108.777 38.0421 108.79Z" fill="#263238"/>
<path d="M32.5531 107.057C32.5599 106.815 32.5935 106.575 32.6531 106.341C32.7361 105.902 32.8721 105.301 33.0531 104.646C33.2341 103.991 33.4351 103.409 33.5941 102.993C33.6634 102.761 33.7605 102.539 33.8831 102.331C33.8401 102.567 33.7762 102.799 33.6921 103.024C33.5591 103.45 33.3741 104.036 33.1921 104.687C33.0101 105.338 32.8741 105.931 32.7471 106.363C32.7034 106.6 32.6364 106.833 32.5471 107.057H32.5531Z" fill="#263238"/>
<path d="M37.851 101.934C37.5967 101.896 37.3458 101.838 37.101 101.759C36.643 101.641 36.01 101.476 35.308 101.317C34.606 101.158 33.963 101.037 33.499 100.948C33.2446 100.915 32.9935 100.86 32.749 100.782C33.0059 100.776 33.2627 100.797 33.515 100.846C33.986 100.906 34.634 101.015 35.34 101.164C35.9449 101.295 36.5424 101.457 37.13 101.651C37.38 101.72 37.622 101.814 37.852 101.934H37.851Z" fill="#263238"/>
<path d="M28.6101 103.422C28.6222 103.142 28.6607 102.864 28.7251 102.592C28.8251 102.086 28.9671 101.392 29.1671 100.627C29.3671 99.8619 29.5771 99.1829 29.7431 98.6929C29.8247 98.424 29.9311 98.1632 30.0611 97.9139C30.016 98.1891 29.9492 98.4603 29.8611 98.7249C29.7211 99.2249 29.5241 99.9049 29.3271 100.662C29.1301 101.419 28.9641 102.115 28.8471 102.614C28.7929 102.889 28.7153 103.16 28.6151 103.422H28.6101Z" fill="#263238"/>
<path d="M35.411 97.4689C35.411 97.5069 34.079 97.4019 32.447 97.2269C30.815 97.0519 29.493 96.8799 29.499 96.8419C30.4905 96.8706 31.4798 96.9504 32.463 97.0809C33.4517 97.1599 34.4356 97.2894 35.411 97.4689Z" fill="#263238"/>
<path d="M34.4419 113.56C34.4419 113.601 29.7769 113.633 24.0249 113.633C18.2729 113.633 13.6069 113.601 13.6069 113.56C13.6069 113.519 18.2719 113.486 24.0249 113.486C29.7779 113.486 34.4419 113.518 34.4419 113.56Z" fill="#455A64"/>
<path d="M31.196 119.56C31.196 119.602 28.051 119.637 24.175 119.637C20.299 119.637 17.157 119.602 17.157 119.56C17.157 119.518 20.299 119.487 24.175 119.487C28.051 119.487 31.196 119.535 31.196 119.56Z" fill="#455A64"/>
<path d="M31.316 120.419C31.316 120.46 28.174 120.492 24.298 120.492C20.422 120.492 17.28 120.46 17.28 120.419C17.28 120.378 20.422 120.346 24.298 120.346C28.174 120.346 31.316 120.378 31.316 120.419Z" fill="#455A64"/>
<path d="M31.3159 118.852C31.3159 118.894 28.0659 118.926 24.0559 118.926C20.0459 118.926 16.7959 118.894 16.7959 118.852C16.7959 118.81 20.0459 118.779 24.0559 118.779C28.0659 118.779 31.3159 118.813 31.3159 118.852Z" fill="#455A64"/>
</svg>
